<svg width="264" height="376" viewBox="0 0 264 376" fill="none" xmlns="http://www.w3.org/2000/svg">
<path d="M160.462 116.5C141.401 95.15 141.401 60.5356 160.462 39.186C179.523 17.8365 210.426 17.8365 229.487 39.186C248.548 60.5356 248.548 95.15 229.487 116.5C210.426 137.849 179.523 137.849 160.462 116.5Z" fill="#407BFF"/>
<path d="M194.882 130.283C169.012 130.283 148.04 106.793 148.04 77.8163C148.04 48.8396 169.012 25.3494 194.882 25.3494C220.753 25.3494 241.725 48.8396 241.725 77.8163C241.725 106.793 220.753 130.283 194.882 130.283Z" fill="#407BFF"/>
<path opacity="0.8" d="M194.882 130.283C169.012 130.283 148.04 106.793 148.04 77.8163C148.04 48.8396 169.012 25.3494 194.882 25.3494C220.753 25.3494 241.725 48.8396 241.725 77.8163C241.725 106.793 220.753 130.283 194.882 130.283Z" fill="white"/>
<path d="M153.201 68.7425C153.301 68.3687 153.466 68.021 153.688 67.7194C153.909 67.4177 154.181 67.1683 154.489 66.9854C154.796 66.8025 155.134 66.6899 155.48 66.654C155.827 66.6181 156.177 66.6597 156.51 66.7763L187.562 77.3837C187.728 77.4375 187.882 77.5302 188.014 77.6556C188.146 77.781 188.252 77.9363 188.326 78.1112C188.461 78.4346 188.475 78.8046 188.367 79.14C188.258 79.4755 188.035 79.749 187.747 79.9004L159.116 96.9568L158.862 97.0846C158.536 97.2437 158.184 97.3271 157.828 97.3297C157.472 97.3323 157.119 97.254 156.791 97.0997C156.463 96.9453 156.166 96.718 155.919 96.4316C155.671 96.1451 155.478 95.8054 155.351 95.433C152.386 87.0566 151.616 77.9067 153.131 69.0571C153.148 68.9507 153.172 68.8456 153.201 68.7425Z" fill="#407BFF"/>
<path d="M190.327 83.2429C190.631 83.3512 190.884 83.5902 191.03 83.9072C191.177 84.2243 191.205 84.5935 191.108 84.9338L181.629 119.676C181.629 119.774 181.568 119.872 181.533 119.971C181.398 120.335 181.199 120.666 180.948 120.943C180.698 121.22 180.4 121.438 180.072 121.584C179.745 121.729 179.395 121.8 179.043 121.791C178.69 121.783 178.343 121.695 178.022 121.534C170.647 117.972 164.328 112.135 159.801 104.703C159.748 104.615 159.705 104.527 159.661 104.438C159.489 104.094 159.381 103.715 159.343 103.323C159.304 102.932 159.337 102.535 159.437 102.158C159.538 101.78 159.705 101.429 159.929 101.125C160.153 100.821 160.428 100.57 160.74 100.388L189.388 83.3412C189.53 83.2531 189.687 83.1989 189.848 83.182C190.01 83.1651 190.173 83.1858 190.327 83.2429Z" fill="#407BFF"/>
<path d="M195.075 85.2582C195.216 85.177 195.369 85.1279 195.527 85.1137C195.684 85.0994 195.843 85.1203 195.993 85.1752C196.143 85.2301 196.282 85.3178 196.402 85.4333C196.522 85.5488 196.62 85.6898 196.69 85.8481L211.918 117.916C211.918 118.014 212.006 118.122 212.041 118.221C212.173 118.584 212.238 118.974 212.234 119.366C212.23 119.759 212.155 120.146 212.016 120.506C211.876 120.866 211.673 121.191 211.42 121.462C211.167 121.733 210.868 121.944 210.54 122.084C203.083 125.402 194.939 126.282 187.053 124.621C186.949 124.602 186.846 124.572 186.746 124.532C186.411 124.42 186.1 124.234 185.83 123.986C185.56 123.738 185.337 123.432 185.174 123.086C185.01 122.74 184.91 122.361 184.879 121.972C184.847 121.582 184.885 121.189 184.991 120.816L194.479 86.084C194.522 85.908 194.598 85.7439 194.701 85.6019C194.803 85.4598 194.931 85.3429 195.075 85.2582Z" fill="#407BFF"/>
<path d="M157.212 62.8736C156.887 62.7217 156.593 62.4985 156.346 62.2172C156.1 61.9358 155.906 61.602 155.777 61.2354C155.648 60.8688 155.586 60.4769 155.594 60.0829C155.602 59.6888 155.681 59.3007 155.825 58.9412C159.024 50.6893 164.254 43.6277 170.904 38.5817L171.15 38.4146C171.454 38.2204 171.789 38.0961 172.137 38.0488C172.484 38.0016 172.836 38.0324 173.173 38.1395C173.51 38.2466 173.824 38.4278 174.098 38.6726C174.371 38.9173 174.598 39.2206 174.766 39.5648L189.994 71.6426C190.117 71.8809 190.172 72.1554 190.152 72.4297C190.133 72.704 190.039 72.9651 189.884 73.1784C189.729 73.3917 189.519 73.5471 189.283 73.624C189.047 73.7008 188.796 73.6955 188.563 73.6088L157.554 62.9915C157.437 62.9649 157.322 62.9254 157.212 62.8736Z" fill="#407BFF"/>
<path d="M199.683 82.9676C199.779 82.6228 199.992 82.3342 200.276 82.1648C200.561 81.9953 200.893 81.9588 201.202 82.0632L232.211 92.6509L232.5 92.7689C232.823 92.9226 233.116 93.1471 233.36 93.4293C233.605 93.7115 233.797 94.0456 233.924 94.412C234.052 94.7784 234.113 95.1697 234.103 95.5628C234.094 95.9559 234.014 96.343 233.869 96.7012C230.694 104.965 225.481 112.044 218.843 117.11C218.765 117.171 218.683 117.227 218.598 117.277C218.29 117.465 217.952 117.583 217.604 117.622C217.255 117.662 216.903 117.624 216.568 117.51C216.233 117.395 215.921 117.207 215.652 116.956C215.382 116.705 215.161 116.396 214.999 116.048L199.771 83.9802C199.627 83.6676 199.596 83.3053 199.683 82.9676Z" fill="#407BFF"/>
<path d="M194.716 70.4138C194.432 70.5851 194.098 70.6233 193.789 70.5201C193.48 70.4169 193.22 70.1808 193.066 69.8632L177.846 37.7854C177.799 37.6909 177.757 37.5923 177.724 37.4905C177.592 37.1275 177.526 36.7387 177.53 36.3468C177.533 35.9549 177.607 35.5678 177.746 35.2081C177.885 34.8484 178.086 34.5233 178.339 34.2518C178.591 33.9803 178.889 33.7679 179.216 33.627C186.675 30.2919 194.83 29.4119 202.72 31.0907L203.001 31.1595C203.338 31.2715 203.651 31.4578 203.922 31.7074C204.194 31.957 204.418 32.265 204.581 32.6131C204.745 32.9612 204.845 33.3424 204.875 33.7343C204.905 34.1262 204.865 34.5209 204.756 34.8952L195.269 69.6273C195.177 69.957 194.98 70.2372 194.716 70.4138Z" fill="#407BFF"/>
<path d="M199.446 72.4584C199.139 72.354 198.882 72.1172 198.73 71.8001C198.579 71.4831 198.546 71.1117 198.639 70.7675L208.118 36.0256C208.118 35.9174 208.179 35.8191 208.214 35.711C208.351 35.3481 208.551 35.0195 208.802 34.7446C209.054 34.4696 209.352 34.2538 209.679 34.11C210.006 33.9661 210.356 33.8971 210.707 33.907C211.059 33.9169 211.405 34.0055 211.725 34.1676C219.104 37.7282 225.424 43.5695 229.946 51.0077C230.001 51.0958 230.051 51.1878 230.095 51.2829C230.261 51.6259 230.364 52.0022 230.399 52.3901C230.434 52.778 230.399 53.1697 230.298 53.5427C230.197 53.9157 230.031 54.2625 229.809 54.5631C229.587 54.8637 229.315 55.1121 229.007 55.2939L200.377 72.3405C200.237 72.4299 200.082 72.4865 199.922 72.5067C199.762 72.527 199.6 72.5106 199.446 72.4584Z" fill="#407BFF"/>
<path d="M201.518 77.6688C201.365 77.3506 201.331 76.9774 201.423 76.6311C201.515 76.2847 201.726 75.9933 202.009 75.8206L230.648 58.7839L230.894 58.6463C231.222 58.4944 231.573 58.417 231.928 58.4184C232.282 58.4199 232.633 58.5002 232.96 58.6548C233.286 58.8094 233.582 59.0351 233.83 59.3188C234.078 59.6026 234.274 59.9387 234.405 60.3077C237.382 68.663 238.164 77.7975 236.66 86.6345C236.643 86.7516 236.617 86.8668 236.581 86.9786C236.481 87.3523 236.316 87.7001 236.095 88.0017C235.874 88.3033 235.601 88.5528 235.294 88.7357C234.986 88.9185 234.649 89.0312 234.302 89.0671C233.955 89.1029 233.605 89.0614 233.273 88.9447L202.264 78.3275C202.106 78.2807 201.958 78.1982 201.83 78.0849C201.701 77.9716 201.595 77.83 201.518 77.6688Z" fill="#407BFF"/>
<g opacity="0.3">
<path d="M153.201 68.7424C153.301 68.3687 153.467 68.0209 153.688 67.7193C153.909 67.4177 154.181 67.1682 154.489 66.9853C154.797 66.8025 155.134 66.6898 155.481 66.6539C155.828 66.618 156.177 66.6596 156.51 66.7763L187.563 77.3837C187.729 77.4374 187.882 77.5301 188.014 77.6555C188.146 77.7809 188.252 77.9362 188.326 78.1112C188.461 78.4345 188.476 78.8045 188.367 79.14C188.258 79.4754 188.035 79.7489 187.747 79.9003L159.117 96.9567L158.862 97.0845C158.536 97.2437 158.184 97.3271 157.828 97.3296C157.472 97.3322 157.12 97.254 156.791 97.0996C156.463 96.9452 156.166 96.718 155.919 96.4315C155.671 96.1451 155.478 95.8054 155.351 95.433C152.386 87.0566 151.616 77.9066 153.131 69.057C153.148 68.9506 153.172 68.8455 153.201 68.7424Z" fill="white"/>
<path d="M190.327 83.2429C190.631 83.3512 190.884 83.5902 191.03 83.9072C191.177 84.2243 191.205 84.5935 191.108 84.9338L181.629 119.676C181.629 119.774 181.568 119.872 181.533 119.971C181.398 120.335 181.199 120.666 180.948 120.943C180.698 121.22 180.4 121.438 180.072 121.584C179.745 121.729 179.395 121.8 179.043 121.791C178.69 121.783 178.343 121.695 178.022 121.534C170.647 117.972 164.328 112.135 159.801 104.703C159.748 104.615 159.705 104.527 159.661 104.438C159.489 104.094 159.381 103.715 159.343 103.323C159.304 102.932 159.337 102.535 159.437 102.158C159.538 101.78 159.705 101.429 159.929 101.125C160.153 100.821 160.428 100.57 160.74 100.388L189.388 83.3412C189.53 83.2531 189.687 83.1989 189.848 83.182C190.01 83.1651 190.173 83.1858 190.327 83.2429Z" fill="white"/>
<path d="M195.075 85.2582C195.216 85.177 195.369 85.1278 195.527 85.1136C195.684 85.0993 195.843 85.1203 195.993 85.1751C196.143 85.23 196.282 85.3177 196.402 85.4332C196.522 85.5487 196.62 85.6897 196.69 85.848L211.918 117.916C211.918 118.014 212.006 118.122 212.041 118.221C212.173 118.584 212.238 118.974 212.234 119.366C212.23 119.758 212.155 120.146 212.016 120.506C211.876 120.866 211.673 121.19 211.42 121.461C211.167 121.733 210.868 121.944 210.54 122.084C203.083 125.402 194.939 126.282 187.053 124.621C186.949 124.602 186.846 124.572 186.746 124.532C186.411 124.42 186.1 124.234 185.83 123.986C185.56 123.738 185.337 123.432 185.174 123.086C185.01 122.74 184.91 122.361 184.879 121.972C184.847 121.582 184.885 121.189 184.991 120.816L194.479 86.084C194.522 85.9079 194.598 85.7438 194.701 85.6018C194.803 85.4598 194.931 85.3428 195.075 85.2582Z" fill="white"/>
<path d="M157.212 62.8734C156.887 62.7216 156.593 62.4984 156.346 62.217C156.1 61.9357 155.906 61.6018 155.777 61.2353C155.648 60.8687 155.586 60.4768 155.594 60.0828C155.602 59.6887 155.681 59.3005 155.825 58.9411C159.024 50.6892 164.254 43.6276 170.904 38.5816L171.15 38.4145C171.454 38.2203 171.789 38.0959 172.137 38.0487C172.484 38.0015 172.836 38.0323 173.173 38.1394C173.51 38.2465 173.824 38.4277 174.098 38.6724C174.371 38.9172 174.598 39.2205 174.766 39.5647L189.994 71.6425C190.117 71.8808 190.172 72.1552 190.152 72.4295C190.133 72.7038 190.039 72.965 189.884 73.1783C189.729 73.3916 189.519 73.547 189.283 73.6238C189.047 73.7007 188.796 73.6954 188.563 73.6086L157.554 62.9914C157.437 62.9647 157.322 62.9252 157.212 62.8734Z" fill="white"/>
<path d="M199.683 82.9677C199.779 82.6229 199.992 82.3343 200.276 82.1648C200.561 81.9954 200.893 81.9588 201.202 82.0632L232.211 92.651L232.5 92.7689C232.823 92.9226 233.116 93.1472 233.36 93.4293C233.605 93.7115 233.797 94.0456 233.924 94.412C234.052 94.7784 234.113 95.1697 234.103 95.5629C234.094 95.956 234.014 96.343 233.869 96.7012C230.694 104.965 225.481 112.044 218.843 117.11C218.765 117.171 218.683 117.227 218.598 117.277C218.29 117.465 217.952 117.583 217.604 117.623C217.255 117.662 216.903 117.624 216.568 117.51C216.233 117.395 215.921 117.207 215.652 116.956C215.382 116.705 215.161 116.396 214.999 116.048L199.771 83.9802C199.627 83.6676 199.596 83.3053 199.683 82.9677Z" fill="white"/>
<path d="M194.716 70.4138C194.432 70.5851 194.098 70.6233 193.789 70.5201C193.48 70.4169 193.22 70.1808 193.066 69.8632L177.846 37.7854C177.799 37.6909 177.757 37.5923 177.724 37.4905C177.592 37.1275 177.526 36.7387 177.53 36.3468C177.533 35.9549 177.607 35.5678 177.746 35.2081C177.885 34.8484 178.086 34.5233 178.339 34.2518C178.591 33.9803 178.889 33.7679 179.216 33.627C186.675 30.2919 194.83 29.4119 202.72 31.0907L203.001 31.1595C203.338 31.2715 203.651 31.4578 203.922 31.7074C204.194 31.957 204.418 32.265 204.581 32.6131C204.745 32.9612 204.845 33.3424 204.875 33.7343C204.905 34.1262 204.865 34.5209 204.756 34.8952L195.269 69.6273C195.177 69.957 194.98 70.2372 194.716 70.4138Z" fill="white"/>
<path d="M199.446 72.4584C199.139 72.354 198.882 72.1172 198.73 71.8001C198.579 71.4831 198.546 71.1117 198.639 70.7675L208.118 36.0256C208.118 35.9174 208.179 35.8191 208.214 35.711C208.351 35.3481 208.551 35.0195 208.802 34.7446C209.054 34.4696 209.352 34.2538 209.679 34.11C210.006 33.9661 210.356 33.8971 210.707 33.907C211.059 33.9169 211.405 34.0055 211.725 34.1676C219.104 37.7282 225.424 43.5695 229.946 51.0077C230.001 51.0958 230.051 51.1878 230.095 51.2829C230.261 51.6259 230.364 52.0022 230.399 52.3901C230.434 52.778 230.399 53.1697 230.298 53.5427C230.197 53.9157 230.031 54.2625 229.809 54.5631C229.587 54.8637 229.315 55.1121 229.007 55.2939L200.377 72.3405C200.237 72.4299 200.082 72.4865 199.922 72.5067C199.762 72.527 199.6 72.5106 199.446 72.4584Z" fill="white"/>
<path d="M201.518 77.6688C201.365 77.3506 201.331 76.9774 201.423 76.6311C201.515 76.2847 201.726 75.9933 202.009 75.8206L230.648 58.7839L230.894 58.6463C231.222 58.4944 231.573 58.417 231.928 58.4184C232.282 58.4199 232.633 58.5002 232.96 58.6548C233.286 58.8094 233.582 59.0351 233.83 59.3188C234.078 59.6026 234.274 59.9387 234.405 60.3077C237.382 68.663 238.164 77.7975 236.66 86.6345C236.643 86.7516 236.617 86.8668 236.581 86.9786C236.481 87.3523 236.316 87.7001 236.095 88.0017C235.874 88.3033 235.601 88.5528 235.294 88.7357C234.986 88.9185 234.649 89.0312 234.302 89.0671C233.955 89.1029 233.605 89.0614 233.273 88.9447L202.264 78.3275C202.106 78.2807 201.958 78.1982 201.83 78.0849C201.701 77.9716 201.595 77.83 201.518 77.6688Z" fill="white"/>
</g>
<path d="M169.052 80.9032C169.122 81.6306 170.254 82.1025 171.597 81.9649C172.94 81.8273 173.985 81.1489 173.923 80.4214C173.862 79.694 172.721 79.2221 171.378 79.3597C170.035 79.4974 168.991 80.1855 169.052 80.9032Z" fill="#407BFF"/>
<path opacity="0.6" d="M169.052 80.9032C169.122 81.6306 170.254 82.1025 171.597 81.9649C172.94 81.8273 173.985 81.1489 173.923 80.4214C173.862 79.694 172.721 79.2221 171.378 79.3597C170.035 79.4974 168.991 80.1855 169.052 80.9032Z" fill="white"/>
<path d="M177.803 97.0059C178.215 97.5663 179.391 97.2222 180.436 96.2785C181.48 95.3347 181.989 94.0862 181.577 93.5357C181.164 92.9851 179.988 93.2997 178.944 94.2632C177.899 95.2266 177.399 96.4554 177.803 97.0059Z" fill="#407BFF"/>
<path opacity="0.6" d="M177.803 97.0059C178.215 97.5663 179.391 97.2222 180.436 96.2785C181.48 95.3347 181.989 94.0862 181.577 93.5357C181.164 92.9851 179.988 93.2997 178.944 94.2632C177.899 95.2266 177.399 96.4554 177.803 97.0059Z" fill="white"/>
<path d="M177.399 109.285C177.908 109.727 178.996 109.137 179.83 107.938C180.664 106.738 180.918 105.431 180.409 104.989C179.9 104.546 178.821 105.156 177.987 106.335C177.153 107.515 176.925 108.832 177.399 109.285Z" fill="#407BFF"/>
<path opacity="0.6" d="M177.399 109.285C177.908 109.727 178.996 109.137 179.83 107.938C180.664 106.738 180.918 105.431 180.409 104.989C179.9 104.546 178.821 105.156 177.987 106.335C177.153 107.515 176.925 108.832 177.399 109.285Z" fill="white"/>
<path d="M209.355 51.1651C209.891 51.5682 210.935 50.8997 211.699 49.6414C212.462 48.383 212.629 47.0362 212.094 46.6921C211.558 46.348 210.523 46.9674 209.759 48.2159C208.996 49.4644 208.82 50.7719 209.355 51.1651Z" fill="#407BFF"/>
<path opacity="0.6" d="M209.355 51.1651C209.891 51.5682 210.935 50.8997 211.699 49.6414C212.462 48.383 212.629 47.0362 212.094 46.6921C211.558 46.348 210.523 46.9674 209.759 48.2159C208.996 49.4644 208.82 50.7719 209.355 51.1651Z" fill="white"/>
<path d="M208.478 62.9226C208.978 63.3552 210.066 62.7653 210.891 61.566C211.716 60.3666 211.98 59.0493 211.479 58.6168C210.979 58.1842 209.891 58.7839 209.057 59.9734C208.223 61.1629 207.969 62.4802 208.478 62.9226Z" fill="#407BFF"/>
<path opacity="0.6" d="M208.478 62.9226C208.978 63.3552 210.066 62.7653 210.891 61.566C211.716 60.3666 211.98 59.0493 211.479 58.6168C210.979 58.1842 209.891 58.7839 209.057 59.9734C208.223 61.1629 207.969 62.4802 208.478 62.9226Z" fill="white"/>
<path opacity="0.6" d="M220.142 78.2685C220.221 78.9763 221.362 79.4187 222.705 79.2516C224.048 79.0845 225.066 78.3373 224.987 77.6295C224.908 76.9217 223.758 76.4793 222.424 76.6465C221.09 76.8136 220.063 77.5607 220.142 78.2685Z" fill="white"/>
<path opacity="0.6" d="M174.766 56.1787C175.275 55.756 175.038 54.419 174.23 53.2295C173.423 52.04 172.334 51.401 171.825 51.8335C171.316 52.2661 171.553 53.5932 172.361 54.7828C173.168 55.9723 174.265 56.6113 174.766 56.1787Z" fill="white"/>
<path opacity="0.6" d="M177.767 63.7189C177.829 63.0111 176.793 62.3033 175.45 62.1558C174.107 62.0084 172.966 62.4803 172.914 63.1979C172.861 63.9155 173.888 64.6135 175.222 64.761C176.556 64.9085 177.715 64.4268 177.767 63.7189Z" fill="white"/>
<path opacity="0.6" d="M189.765 49.3956C190.397 49.3956 190.863 48.0979 190.775 46.5839C190.687 45.07 190.108 43.8903 189.467 43.9395C188.826 43.9886 188.37 45.2371 188.449 46.7412C188.528 48.2454 189.125 49.4545 189.765 49.3956Z" fill="white"/>
<path d="M201.316 113.659C201.93 113.659 202.387 112.371 202.29 110.867C202.194 109.363 201.588 108.184 200.965 108.213C200.342 108.242 199.894 109.511 199.991 111.015C200.087 112.519 200.702 113.689 201.316 113.659Z" fill="#407BFF"/>
<path opacity="0.6" d="M201.316 113.659C201.93 113.659 202.387 112.371 202.29 110.867C202.194 109.363 201.588 108.184 200.965 108.213C200.342 108.242 199.894 109.511 199.991 111.015C200.087 112.519 200.702 113.689 201.316 113.659Z" fill="white"/>
<path d="M213.726 93.3292C214.113 92.7492 213.524 91.5597 212.436 90.6749C211.348 89.7902 210.145 89.5542 209.803 90.1342C209.461 90.7143 210.005 91.9038 211.102 92.7984C212.199 93.693 213.384 93.9093 213.726 93.3292Z" fill="#407BFF"/>
<path opacity="0.6" d="M213.726 93.3292C214.113 92.7492 213.524 91.5597 212.436 90.6749C211.348 89.7902 210.145 89.5542 209.803 90.1342C209.461 90.7143 210.005 91.9038 211.102 92.7984C212.199 93.693 213.384 93.9093 213.726 93.3292Z" fill="white"/>
<path d="M4.79222 81.257H191.74C192.074 90.9108 192.398 111.988 191.179 121.563C189.959 131.138 187.062 140.605 181.603 148.106C171.948 161.26 155.781 166.519 146.004 179.516C140.404 186.957 137.332 196.395 132.136 204.201C125.734 213.618 116.55 220.18 106.227 222.712C105.349 238.756 104.533 260 104.349 283.004C103.945 331.784 106.762 351.21 111.203 362.043C115.065 365.376 144.556 368.217 151.34 369.908C158.125 371.599 157.747 375.954 157.747 375.954L98.275 375.856L38.8027 375.954C38.8027 375.954 38.4078 371.57 45.2099 369.908C52.012 368.247 81.476 365.396 85.3466 362.043C89.7351 351.23 92.6051 331.775 92.2014 282.994C92.0083 259.99 91.1657 238.756 90.3231 222.702C79.9977 220.175 70.813 213.612 64.4137 204.191C59.209 196.385 56.1459 186.948 50.5462 179.506C40.7688 166.509 24.5578 161.25 14.9383 148.096C9.47908 140.625 6.60027 131.138 5.37151 121.553C4.14273 111.968 4.4938 90.9108 4.79222 81.257Z" fill="#263238"/>
<g opacity="0.9">
<path d="M4.79222 81.257H191.74C192.074 90.9108 192.398 111.988 191.179 121.563C189.959 131.138 187.062 140.605 181.603 148.106C171.948 161.26 155.781 166.519 146.004 179.516C140.404 186.957 137.332 196.395 132.136 204.201C125.734 213.618 116.55 220.18 106.227 222.712C105.349 238.756 104.533 260 104.349 283.004C103.945 331.784 106.762 351.21 111.203 362.043C115.065 365.376 144.556 368.217 151.34 369.908C158.125 371.599 157.747 375.954 157.747 375.954L98.275 375.856L38.8027 375.954C38.8027 375.954 38.4078 371.57 45.2099 369.908C52.012 368.247 81.476 365.396 85.3466 362.043C89.7351 351.23 92.6051 331.775 92.2014 282.994C92.0083 259.99 91.1657 238.756 90.3231 222.702C79.9977 220.175 70.813 213.612 64.4137 204.191C59.209 196.385 56.1459 186.948 50.5462 179.506C40.7688 166.509 24.5578 161.25 14.9383 148.096C9.47908 140.625 6.60027 131.138 5.37151 121.553C4.14273 111.968 4.4938 90.9108 4.79222 81.257Z" fill="white"/>
</g>
<path d="M180.62 118.801C179.514 127.422 177.109 134.373 173.353 139.445C169.596 144.518 163.935 148.598 157.949 152.835C150.928 157.75 143.739 162.892 137.85 170.727C134.129 175.642 131.531 180.912 129.02 185.984C127.409 189.439 125.597 192.773 123.596 195.962C118.95 202.774 112.383 207.624 104.963 209.726H91.5431C84.1261 207.624 77.5621 202.773 72.9185 195.962C70.9168 192.794 69.1048 189.48 67.4944 186.043C64.9842 180.971 62.3862 175.731 58.6648 170.786C52.7668 162.921 45.4995 157.839 38.557 152.894C32.5799 148.657 26.9276 144.656 23.1623 139.504C19.397 134.353 17.0184 127.471 15.8862 118.86V106.168H180.62V118.801Z" fill="#407BFF"/>
<g opacity="0.4">
<path d="M180.62 118.801C179.514 127.422 177.109 134.373 173.353 139.445C169.596 144.518 163.935 148.598 157.949 152.835C150.928 157.75 143.739 162.892 137.85 170.727C134.129 175.642 131.531 180.912 129.02 185.984C127.409 189.439 125.597 192.773 123.596 195.962C118.95 202.774 112.383 207.624 104.963 209.726H91.5431C84.1261 207.624 77.5621 202.773 72.9185 195.962C70.9168 192.794 69.1048 189.48 67.4944 186.043C64.9842 180.971 62.3862 175.731 58.6648 170.786C52.7668 162.921 45.4995 157.839 38.557 152.894C32.5799 148.657 26.9276 144.656 23.1623 139.504C19.397 134.353 17.0184 127.471 15.8862 118.86V106.168H180.62V118.801Z" fill="white"/>
</g>
<path d="M14.596 106.168C14.596 107.318 51.7574 108.252 97.6079 108.252C143.458 108.252 180.62 107.269 180.62 106.168C180.62 105.067 143.458 104.094 97.6079 104.094C51.7574 104.094 14.596 105.018 14.596 106.168Z" fill="#407BFF"/>
<path d="M144.503 144.616C144.503 144.616 145.837 138.128 138.57 134.147C133.611 131.433 120.761 122.91 118.383 122.91C116.004 122.91 106.306 141.805 105.253 146.769C104.199 151.734 104.84 154.732 107.263 157.21C109.685 159.687 124.202 170.638 127.994 169.99C131.785 169.341 144.354 148.598 144.503 144.616Z" fill="#407BFF"/>
<path opacity="0.8" d="M144.503 144.616C144.503 144.616 145.837 138.128 138.57 134.147C133.611 131.433 120.761 122.91 118.383 122.91C116.004 122.91 106.306 141.805 105.253 146.769C104.199 151.734 104.84 154.732 107.263 157.21C109.685 159.687 124.202 170.638 127.994 169.99C131.785 169.341 144.354 148.598 144.503 144.616Z" fill="white"/>
<path opacity="0.6" d="M141.299 141.952C141.299 141.952 124.562 131.581 122.411 130.647C120.946 128.405 118.953 124.955 118.901 125.908L120.173 130.991C120.173 130.991 107.657 150.21 107.991 152.275C108.324 154.339 118.681 133.852 121.332 132.407C123.982 130.961 141.966 145.423 142.335 144.204C142.704 142.984 140.975 141.657 141.299 141.952Z" fill="white"/>
<path opacity="0.6" d="M137.025 152.412C137.025 152.412 130.881 165.497 126.598 165.33C122.315 165.163 111.475 155.784 113.924 156.285C116.373 156.787 124.553 163.236 127.765 160.719C130.978 158.203 137.025 152.412 137.025 152.412Z" fill="white"/>
<path d="M101.742 226.153C101.127 246.188 99.9865 273.95 100.109 293.69C100.276 316.153 100.864 339.02 106.183 360.815L105.498 356.666C103.976 346.983 103.009 337.201 102.602 327.38C100.934 293.67 102.725 259.892 101.724 226.123L101.742 226.153Z" fill="white"/>
<path d="M93.5618 224.678C93.7022 241.046 94.3693 257.385 94.615 273.743C94.8608 290.102 94.8257 306.49 95.598 322.819C96.2212 310.52 96.072 298.291 96.4231 286.002C96.4838 265.517 95.5285 245.044 93.5618 224.678Z" fill="white"/>
<path d="M149.471 371.54C116.496 370.891 79.8259 370.901 46.8336 371.54C79.8347 372.179 116.487 372.199 149.471 371.54Z" fill="#263238"/>
<path opacity="0.2" d="M157.107 81.257C157.107 81.257 164.128 115.419 152.13 131.6C140.132 147.782 128.432 152.815 122.376 170.717C118.506 185.719 115.557 198.145 100.575 209.696C113.292 209.254 123.868 185.797 131.715 168.967C139.07 153.238 157.115 147.772 169.069 131.61C181.024 115.448 177.513 81.2668 177.513 81.2668" fill="white"/>
<path opacity="0.2" d="M38.0567 81.257C38.0567 81.257 31.0879 115.419 43.042 131.6C54.9962 147.782 66.7397 152.815 72.7957 170.717C76.6576 185.719 79.6154 198.145 94.5975 209.696C81.8798 209.254 71.3036 185.797 63.4571 168.967C56.102 153.238 38.0567 147.772 26.1026 131.61C14.1484 115.448 17.6592 81.257 17.6592 81.257" fill="white"/>
<path d="M1.29898 84.4127C-0.728485 81.1784 4.23048 79.2417 4.23048 79.2417L84.899 79.055V78.996H97.9765H111.045V79.055L191.723 79.2417C191.723 79.2417 196.682 81.2079 194.654 84.4127C194.983 84.8303 195.174 85.3621 195.195 85.9187C195.216 86.4754 195.065 87.0232 194.768 87.4701L193.689 89.0037C193.689 89.0037 194.865 91.4417 192.75 92.1004C191.887 92.2795 190.995 92.1113 190.232 91.6257C189.47 91.14 188.885 90.368 188.581 89.4461C188.148 90.0048 187.616 90.4566 187.019 90.7728C186.422 91.0891 185.772 91.2629 185.112 91.2833C184.452 91.3036 183.795 91.17 183.184 90.891C182.572 90.6119 182.019 90.1936 181.559 89.6624C180.381 90.7182 178.882 91.2193 177.38 91.0597C175.878 90.9 174.49 90.0922 173.511 88.8071C171.158 91.481 166.489 90.5766 165.058 87.185C161.534 88.317 157.772 88.0885 154.377 86.5362C152.783 87.5011 150.965 87.9022 149.163 87.6864C148.792 88.3906 148.287 88.9951 147.685 89.4572C147.082 89.9193 146.397 90.2278 145.676 90.3609C144.956 90.494 144.218 90.4485 143.515 90.2276C142.811 90.0067 142.16 89.6157 141.607 89.0823C140.89 89.3988 140.123 89.5507 139.353 89.5288C138.583 89.507 137.824 89.3119 137.122 88.9551C136.421 88.5984 135.79 88.0873 135.268 87.4522C134.746 86.8171 134.344 86.071 134.085 85.2582C132.179 85.4434 130.261 85.4072 128.362 85.15C126.457 86.922 124.135 88.0393 121.677 88.3672C119.218 88.6951 116.727 88.2197 114.503 86.9982C113.893 87.4975 113.194 87.8437 112.453 88.0134C111.713 88.183 110.948 88.172 110.212 87.9813C109.394 89.1283 108.223 89.8924 106.929 90.1244C105.027 90.2852 103.121 89.8746 101.408 88.9349C99.1666 89.7081 96.769 89.7081 94.5272 88.9349C92.8116 89.8759 90.9026 90.2865 88.9978 90.1244C87.7036 89.8924 86.5332 89.1283 85.7152 87.9813C84.9801 88.1706 84.2172 88.1808 83.4783 88.0111C82.7393 87.8415 82.0415 87.4961 81.4321 86.9982C79.2073 88.2193 76.715 88.6945 74.2548 88.3666C71.7946 88.0388 69.4714 86.9218 67.5646 85.15C65.6684 85.4071 63.7536 85.4434 61.8508 85.2582C61.5906 86.0701 61.1875 86.8154 60.6654 87.4497C60.1434 88.0841 59.513 88.5946 58.8117 88.9512C58.1103 89.3078 57.3522 89.5031 56.5822 89.5257C55.8122 89.5482 55.0461 89.3974 54.329 89.0823C53.7747 89.6159 53.1226 90.0069 52.4189 90.2278C51.7151 90.4488 50.9766 90.4944 50.2554 90.3613C49.5342 90.2282 48.8478 89.9198 48.2445 89.4576C47.6412 88.9955 47.1356 88.3909 46.7633 87.6864C44.9645 87.9008 43.1499 87.4997 41.5587 86.5362C38.1638 88.0877 34.4019 88.3162 30.8772 87.185C29.4465 90.5766 24.7772 91.481 22.4162 88.8071C21.4379 90.0916 20.0517 90.8991 18.5511 91.0588C17.0505 91.2184 15.5533 90.7176 14.3766 89.6624C13.9156 90.1909 13.362 90.6069 12.7505 90.8842C12.1391 91.1615 11.483 91.2942 10.8236 91.2739C10.1642 91.2536 9.51562 91.0807 8.91872 90.7662C8.32181 90.4516 7.78944 90.0022 7.35506 89.4461C7.05106 90.368 6.46596 91.14 5.70312 91.6257C4.94029 92.1113 4.0488 92.2795 3.18604 92.1004C1.07957 91.4417 2.2469 89.0037 2.2469 89.0037L1.16733 87.4701C0.872665 87.021 0.72493 86.472 0.748901 85.9153C0.772873 85.3585 0.967102 84.828 1.29898 84.4127Z" fill="#407BFF"/>
<g opacity="0.7">
<path d="M1.29898 84.4127C-0.728485 81.1784 4.23048 79.2417 4.23048 79.2417L84.899 79.055V78.996H97.9765H111.045V79.055L191.723 79.2417C191.723 79.2417 196.682 81.2079 194.654 84.4127C194.983 84.8303 195.174 85.3621 195.195 85.9187C195.216 86.4754 195.065 87.0232 194.768 87.4701L193.689 89.0037C193.689 89.0037 194.865 91.4417 192.75 92.1004C191.887 92.2795 190.995 92.1113 190.232 91.6257C189.47 91.14 188.885 90.368 188.581 89.4461C188.148 90.0048 187.616 90.4566 187.019 90.7728C186.422 91.0891 185.772 91.2629 185.112 91.2833C184.452 91.3036 183.795 91.17 183.184 90.891C182.572 90.6119 182.019 90.1936 181.559 89.6624C180.381 90.7182 178.882 91.2193 177.38 91.0597C175.878 90.9 174.49 90.0922 173.511 88.8071C171.158 91.481 166.489 90.5766 165.058 87.185C161.534 88.317 157.772 88.0885 154.377 86.5362C152.783 87.5011 150.965 87.9022 149.163 87.6864C148.792 88.3906 148.287 88.9951 147.685 89.4572C147.082 89.9193 146.397 90.2278 145.676 90.3609C144.956 90.494 144.218 90.4485 143.515 90.2276C142.811 90.0067 142.16 89.6157 141.607 89.0823C140.89 89.3988 140.123 89.5507 139.353 89.5288C138.583 89.507 137.824 89.3119 137.122 88.9551C136.421 88.5984 135.79 88.0873 135.268 87.4522C134.746 86.8171 134.344 86.071 134.085 85.2582C132.179 85.4434 130.261 85.4072 128.362 85.15C126.457 86.922 124.135 88.0393 121.677 88.3672C119.218 88.6951 116.727 88.2197 114.503 86.9982C113.893 87.4975 113.194 87.8437 112.453 88.0134C111.713 88.183 110.948 88.172 110.212 87.9813C109.394 89.1283 108.223 89.8924 106.929 90.1244C105.027 90.2852 103.121 89.8746 101.408 88.9349C99.1666 89.7081 96.769 89.7081 94.5272 88.9349C92.8116 89.8759 90.9026 90.2865 88.9978 90.1244C87.7036 89.8924 86.5332 89.1283 85.7152 87.9813C84.9801 88.1706 84.2172 88.1808 83.4783 88.0111C82.7393 87.8415 82.0415 87.4961 81.4321 86.9982C79.2073 88.2193 76.715 88.6945 74.2548 88.3666C71.7946 88.0388 69.4714 86.9218 67.5646 85.15C65.6684 85.4071 63.7536 85.4434 61.8508 85.2582C61.5906 86.0701 61.1875 86.8154 60.6654 87.4497C60.1434 88.0841 59.513 88.5946 58.8117 88.9512C58.1103 89.3078 57.3522 89.5031 56.5822 89.5257C55.8122 89.5482 55.0461 89.3974 54.329 89.0823C53.7747 89.6159 53.1226 90.0069 52.4189 90.2278C51.7151 90.4488 50.9766 90.4944 50.2554 90.3613C49.5342 90.2282 48.8478 89.9198 48.2445 89.4576C47.6412 88.9955 47.1356 88.3909 46.7633 87.6864C44.9645 87.9008 43.1499 87.4997 41.5587 86.5362C38.1638 88.0877 34.4019 88.3162 30.8772 87.185C29.4465 90.5766 24.7772 91.481 22.4162 88.8071C21.4379 90.0916 20.0517 90.8991 18.5511 91.0588C17.0505 91.2184 15.5533 90.7176 14.3766 89.6624C13.9156 90.1909 13.362 90.6069 12.7505 90.8842C12.1391 91.1615 11.483 91.2942 10.8236 91.2739C10.1642 91.2536 9.51562 91.0807 8.91872 90.7662C8.32181 90.4516 7.78944 90.0022 7.35506 89.4461C7.05106 90.368 6.46596 91.14 5.70312 91.6257C4.94029 92.1113 4.0488 92.2795 3.18604 92.1004C1.07957 91.4417 2.2469 89.0037 2.2469 89.0037L1.16733 87.4701C0.872665 87.021 0.72493 86.472 0.748901 85.9153C0.772873 85.3585 0.967102 84.828 1.29898 84.4127Z" fill="white"/>
</g>
<path d="M98.8104 218.259C84.2056 213.963 72.269 207.366 64.8086 191.971C61.0872 185.09 57.9188 177.707 53.3548 171.386C48.624 165.123 42.1642 160.916 36.1082 156.639C28.2089 150.997 19.3531 145.196 15.9213 134.913C20.3097 150.702 36.6085 157.21 47.0617 167.139C54.6274 173.833 58.3752 183.979 63.4219 192.935C71.3211 208.516 83.6088 215.083 98.8455 218.269L98.8104 218.259Z" fill="white"/>
<path d="M77.3422 116.048C77.3422 116.048 73.6032 111.919 67.0732 117.257C62.6145 120.904 50.8008 129.752 49.6861 132.131C48.5715 134.51 57.2431 152.619 60.666 155.932C64.089 159.244 66.7572 160.06 69.8467 158.822C72.9361 157.583 88.3835 148.313 89.6298 144.243C90.8761 140.173 80.3877 118.063 77.3422 116.048Z" fill="#407BFF"/>
<path opacity="0.6" d="M77.3422 116.048C77.3422 116.048 73.6032 111.919 67.0732 117.257C62.6145 120.904 50.8008 129.752 49.6861 132.131C48.5715 134.51 57.2431 152.619 60.666 155.932C64.089 159.244 66.7572 160.06 69.8467 158.822C72.9361 157.583 88.3835 148.313 89.6298 144.243C90.8761 140.173 80.3877 118.063 77.3422 116.048Z" fill="white"/>
<path opacity="0.3" d="M73.726 117.985C73.726 117.985 57.7082 129.723 55.9704 131.404C53.5216 131.807 49.8265 132.18 50.5901 132.682L55.198 133.793C55.198 133.793 64.5278 155.165 66.3095 155.794C68.0913 156.423 56.7603 136.604 56.8568 133.301C56.9534 129.998 76.7716 118.938 75.9641 117.995C75.1567 117.051 73.3399 118.211 73.726 117.985Z" fill="white"/>
<path opacity="0.3" d="M79.9752 127.059C79.9752 127.059 87.418 139.278 85.294 143.417C83.17 147.556 70.698 153.936 72.2428 151.744C73.7875 149.551 82.6873 144.469 82.2046 140.104C81.7218 135.739 79.9752 127.059 79.9752 127.059Z" fill="white"/>
<path d="M105.534 157.593C105.534 157.593 101.786 153.464 95.2558 158.802C90.7971 162.44 78.9834 171.297 77.8687 173.666C76.7541 176.035 85.452 194.134 88.9013 197.467C92.3506 200.799 94.9925 201.605 98.082 200.367C101.171 199.128 116.592 189.848 117.839 185.788C119.085 181.727 108.597 159.598 105.534 157.593Z" fill="#407BFF"/>
<path opacity="0.6" d="M105.534 157.593C105.534 157.593 101.786 153.464 95.2558 158.802C90.7971 162.44 78.9834 171.297 77.8687 173.666C76.7541 176.035 85.452 194.134 88.9013 197.467C92.3506 200.799 94.9925 201.605 98.082 200.367C101.171 199.128 116.592 189.848 117.839 185.788C119.085 181.727 108.597 159.598 105.534 157.593Z" fill="white"/>
<path opacity="0.3" d="M101.917 159.5C101.917 159.5 85.8995 171.238 84.1617 172.929C81.713 173.332 78.0179 173.696 78.7815 174.197L83.3894 175.308C83.3894 175.308 92.728 196.68 94.5009 197.309C96.2738 197.938 84.9692 178.179 85.0657 174.846C85.1623 171.513 104.981 160.483 104.173 159.5C103.366 158.517 101.549 159.707 101.917 159.5Z" fill="white"/>
<path opacity="0.3" d="M108.211 168.613C108.211 168.613 115.653 180.823 113.538 184.962C111.423 189.101 98.9333 195.491 100.478 193.298C102.023 191.106 110.923 186.014 110.44 181.659C109.957 177.304 108.211 168.613 108.211 168.613Z" fill="white"/>
<path d="M144.924 133.055C145.092 135.313 145.951 137.436 147.355 139.066C148.759 140.696 150.622 141.733 152.63 142.001C144.81 142.404 144.845 150.731 144.845 150.731C143.968 142.867 137.227 141.736 136.604 141.736C144.986 140.625 144.924 133.055 144.924 133.055Z" fill="white"/>
<path d="M101.145 213.225C101.239 214.511 101.727 215.721 102.527 216.65C103.327 217.578 104.389 218.167 105.534 218.318C104.953 218.318 104.379 218.446 103.844 218.696C103.309 218.947 102.823 219.313 102.415 219.775C102.007 220.236 101.684 220.784 101.466 221.386C101.248 221.988 101.139 222.633 101.145 223.282C100.993 221.961 100.445 220.737 99.5929 219.809C98.7403 218.881 97.6324 218.303 96.4494 218.17C101.198 217.502 101.145 213.225 101.145 213.225Z" fill="white"/>
<path d="M94.8081 350.768C94.9223 352.339 95.5189 353.818 96.4966 354.952C97.4743 356.087 98.7726 356.807 100.171 356.991C99.4589 356.991 98.754 357.148 98.0964 357.453C97.4388 357.759 96.8414 358.206 96.3384 358.771C95.8355 359.335 95.4368 360.005 95.1651 360.742C94.8935 361.479 94.7543 362.269 94.7554 363.066C94.5801 361.447 93.9164 359.943 92.8741 358.805C91.8318 357.666 90.4735 356.96 89.0241 356.804C94.8959 356.037 94.8081 350.768 94.8081 350.768Z" fill="white"/>
<path opacity="0.9" d="M107.693 363.066L140.983 370.154C140.983 370.154 106.569 369.77 106.183 369.476C105.797 369.181 99.9865 363.331 100.171 363.39C104.638 364.904 107.745 364.963 107.693 363.066Z" fill="white"/>
<path opacity="0.4" d="M100.575 133.173C99.1543 133.173 98.003 131.884 98.003 130.293C98.003 128.702 99.1543 127.413 100.575 127.413C101.995 127.413 103.146 128.702 103.146 130.293C103.146 131.884 101.995 133.173 100.575 133.173Z" fill="white"/>
<path opacity="0.4" d="M91.9732 133.213C91.9732 133.549 92.0625 133.879 92.2297 134.159C92.397 134.438 92.6346 134.656 92.9126 134.785C93.1906 134.913 93.4963 134.946 93.7911 134.88C94.0859 134.814 94.3564 134.651 94.5684 134.412C94.7804 134.173 94.9243 133.869 94.9819 133.538C95.0395 133.208 95.0082 132.866 94.8919 132.555C94.7756 132.244 94.5796 131.98 94.3288 131.794C94.0779 131.608 93.7835 131.51 93.4828 131.512C93.2838 131.512 93.0868 131.556 92.9031 131.642C92.7194 131.727 92.5525 131.853 92.4123 132.011C92.272 132.169 92.1609 132.356 92.0856 132.563C92.0102 132.769 91.972 132.99 91.9732 133.213Z" fill="white"/>
<path opacity="0.4" d="M89.6999 152.805C89.6999 153.142 89.7892 153.471 89.9564 153.751C90.1236 154.031 90.3613 154.249 90.6393 154.378C90.9172 154.506 91.223 154.539 91.5178 154.473C91.8125 154.406 92.0831 154.243 92.2951 154.004C92.5071 153.766 92.651 153.462 92.7086 153.131C92.7662 152.801 92.7349 152.458 92.6186 152.148C92.5023 151.837 92.3063 151.572 92.0555 151.387C91.8046 151.201 91.5102 151.103 91.2095 151.105C91.0105 151.105 90.8135 151.149 90.6298 151.234C90.446 151.32 90.2792 151.445 90.1389 151.603C89.9986 151.761 89.8876 151.949 89.8123 152.155C89.7369 152.362 89.6987 152.583 89.6999 152.805Z" fill="white"/>
<path opacity="0.4" d="M94.0183 126.429C93.4269 126.429 92.9475 125.893 92.9475 125.23C92.9475 124.568 93.4269 124.031 94.0183 124.031C94.6096 124.031 95.0891 124.568 95.0891 125.23C95.0891 125.893 94.6096 126.429 94.0183 126.429Z" fill="white"/>
<path d="M191.819 86.5558C192.101 86.1606 192.298 85.6974 192.393 85.2027C192.487 84.7081 192.478 84.1954 192.366 83.7054C192.254 83.2153 192.041 82.7612 191.745 82.3789C191.449 81.9967 191.078 81.6967 190.661 81.5027C191.413 83.0543 191.811 84.7902 191.819 86.5558Z" fill="white"/>
<path d="M187.308 81.5028C162.838 80.8638 135.752 80.8638 111.265 81.5028C135.752 82.1516 162.829 82.1516 187.308 81.5028Z" fill="white"/>
<path d="M93.0089 81.5028C68.5301 80.8638 41.4534 80.8638 16.9658 81.5028C41.4534 82.1516 68.5301 82.1516 93.0089 81.5028Z" fill="white"/>
<path d="M106.306 81.5028C105.657 81.1723 104.952 81.0012 104.239 81.0012C103.526 81.0012 102.821 81.1723 102.172 81.5028C102.82 81.8378 103.525 82.0113 104.239 82.0113C104.953 82.0113 105.658 81.8378 106.306 81.5028Z" fill="white"/>
<path d="M147.505 107.741C119.682 107.083 88.7433 107.102 60.9029 107.741C88.752 108.38 119.708 108.39 147.505 107.741Z" fill="white"/>
<path d="M89.384 141.362C87.7919 132.641 84.0698 124.585 78.6323 118.093C77.6844 117.021 75.0601 114.043 77.2719 116.923L78.3075 118.407C83.0993 125.326 86.8415 133.082 89.384 141.362Z" fill="white"/>
<path d="M134.611 131.827C130.843 128.887 126.889 126.259 122.78 123.962C121.288 123.284 119.866 122.251 118.181 122.428C117.396 122.8 116.714 123.401 116.206 124.168C114.738 126.166 113.426 128.3 112.283 130.549C110.715 133.487 109.28 136.513 107.982 139.612C110.817 134.599 113.45 129.379 116.847 124.807C117.26 124.213 117.785 123.727 118.383 123.382C119.743 123.323 121.165 124.247 122.429 124.798C126.431 126.832 130.706 129.487 134.611 131.787V131.827Z" fill="white"/>
<path d="M95.6683 158.999C91.2381 161.195 87.2249 164.322 83.8458 168.21C87.9471 165.407 91.895 162.331 95.6683 158.999Z" fill="white"/>
<path d="M185.052 103.239C184.447 112.961 184.376 123.087 181.384 132.318C178.865 139.052 174.467 144.882 169.456 149.542C167.769 151.123 165.925 152.482 163.961 153.592C172.019 149.66 178.628 141.638 182.191 132.692C185.149 123.303 185.158 113.079 185.052 103.199V103.239Z" fill="white"/>
</svg>
