<svg width="278" height="393" viewBox="0 0 278 393" fill="none" xmlns="http://www.w3.org/2000/svg">
<path d="M217.467 60.6589L265.459 94.0835C265.789 94.3125 266.066 94.6253 266.269 94.9965C266.471 95.3678 266.592 95.7871 266.623 96.2206C266.654 96.6541 266.593 97.0897 266.446 97.492C266.298 97.8944 266.068 98.2523 265.775 98.5368C258.99 105.074 240.059 120.774 234.117 122.131C231.817 122.671 228.728 124.559 224.927 124.579C214.048 124.626 203.386 121.172 194.208 114.63L183.377 106.893L182.201 105.91C177.646 102.292 173.803 97.6659 170.909 92.3173C168.015 86.9688 166.132 81.0118 165.376 74.8152L165.244 73.5863L217.467 60.6589Z" fill="#FF725E"/>
<path opacity="0.4" d="M217.467 60.6589L265.459 94.0835C265.789 94.3125 266.066 94.6253 266.269 94.9965C266.471 95.3678 266.592 95.7871 266.623 96.2206C266.654 96.6541 266.593 97.0897 266.446 97.492C266.298 97.8944 266.068 98.2523 265.775 98.5368C258.99 105.074 240.059 120.774 234.117 122.131C231.817 122.671 228.728 124.559 224.927 124.579C214.048 124.626 203.386 121.172 194.208 114.63L183.377 106.893L182.201 105.91C177.646 102.292 173.803 97.6659 170.909 92.3173C168.015 86.9688 166.132 81.0118 165.376 74.8152L165.244 73.5863L217.467 60.6589Z" fill="white"/>
<path d="M174.24 81.9228C177.558 88.2223 181.839 93.8192 186.888 98.4581C190.601 101.702 193.804 99.1266 195.375 96.5903L211.077 72.0134C211.306 71.6552 211.436 71.2298 211.451 70.7897C211.466 70.3497 211.365 69.9144 211.161 69.5377C210.958 69.161 210.66 68.8595 210.305 68.6705C209.95 68.4815 209.553 68.4133 209.164 68.4743L177.189 73.5371C174.39 74.0385 172.503 79.4159 174.24 81.9228Z" fill="#FF725E"/>
<path d="M228.64 72.092L249.906 87.9687C250.786 88.6238 251.514 89.5043 252.03 90.5372C252.546 91.5701 252.834 92.7258 252.872 93.9085C252.91 95.0913 252.696 96.2671 252.247 97.3386C251.798 98.4101 251.128 99.3466 250.292 100.07L238.242 110.579C237.605 111.088 236.866 111.414 236.09 111.527C235.314 111.641 234.525 111.54 233.793 111.232C233.06 110.924 232.407 110.42 231.889 109.762C231.372 109.105 231.006 108.316 230.825 107.463L224.041 75.5328C223.906 74.8777 223.953 74.1923 224.174 73.5676C224.395 72.9429 224.781 72.4084 225.28 72.035C225.779 71.6617 226.368 71.4672 226.968 71.4774C227.568 71.4875 228.151 71.7019 228.64 72.092Z" fill="#FF725E"/>
<path d="M219.389 113.981C213.124 112.955 207.001 111.039 201.168 108.279C196.481 106.234 196.876 102.272 198.421 99.7165L214.992 74.4711C215.278 73.9948 215.683 73.6227 216.156 73.4004C216.629 73.1781 217.149 73.1153 217.654 73.2197C218.158 73.3241 218.624 73.5912 218.994 73.9881C219.365 74.3851 219.624 74.8946 219.74 75.4542L226.095 105.93C227.595 111.504 222.101 114.885 219.389 113.981Z" fill="#FF725E"/>
<path d="M264.248 93.2478C264.248 93.2478 236.881 138.892 191.944 108.613C176.013 97.8781 169.413 85.1178 167.535 73.1144L163.489 73.7632C165.095 87.8212 171.713 102.479 188.801 113.312C240.936 146.393 268.548 96.4428 268.548 96.4428L264.248 93.2478Z" fill="#FF725E"/>
<path d="M233.941 83.6826C235.211 84.5302 236.402 85.5182 237.496 86.6318C238.687 87.623 239.785 88.7497 240.769 89.9939C239.496 89.148 238.302 88.1599 237.206 87.0447C236.013 86.0583 234.918 84.9311 233.941 83.6826Z" fill="white"/>
<path d="M235.108 89.5515C235.214 89.4729 235.819 90.2397 236.469 91.2621C237.118 92.2845 237.557 93.2282 237.452 93.2282C237.346 93.2282 236.741 92.5499 236.1 91.5275C235.647 90.9556 235.309 90.2819 235.108 89.5515Z" fill="white"/>
<path d="M215.852 88.8633C216.14 89.9579 216.282 91.0941 216.273 92.2352C216.427 93.3592 216.427 94.5029 216.273 95.6268C215.985 94.5357 215.843 93.4026 215.852 92.2647C215.703 91.137 215.703 89.991 215.852 88.8633Z" fill="white"/>
<path d="M211.955 89.9349C211.925 90.8573 211.807 91.7735 211.604 92.6678C211.547 93.59 211.402 94.5028 211.174 95.391C210.957 94.4728 210.957 93.5074 211.174 92.5892C211.228 91.6444 211.497 90.7308 211.955 89.9349Z" fill="white"/>
<path d="M193.128 85.688C194.305 84.3527 195.589 83.1417 196.964 82.0703C198.248 80.8667 199.626 79.7942 201.08 78.8655C199.904 80.2008 198.62 81.4118 197.245 82.4832C195.961 83.6868 194.583 84.7593 193.128 85.688Z" fill="white"/>
<path d="M193.453 76.4175C194.283 75.9818 195.174 75.7123 196.086 75.6212C196.943 75.3593 197.833 75.2596 198.719 75.3263C197.904 75.7566 197.028 76.026 196.13 76.1226C195.259 76.3901 194.354 76.4898 193.453 76.4175Z" fill="white"/>
<path d="M188.055 56.5102C191.224 56.929 194.35 57.6794 197.394 58.7516C195.799 58.6334 194.218 58.3437 192.672 57.8865C191.096 57.5988 189.55 57.1378 188.055 56.5102Z" fill="white"/>
<path d="M193.462 50.4447C194.31 50.9346 195.083 51.5716 195.753 52.3322C196.523 52.9587 197.196 53.7226 197.745 54.5933C196.896 54.1091 196.123 53.4751 195.454 52.7156C194.688 52.0808 194.015 51.3144 193.462 50.4447Z" fill="white"/>
<path d="M201.484 112.349C201.7 112.408 201.912 112.487 202.116 112.585C202.528 112.752 203.117 113.047 203.871 113.342C213.367 117.232 223.695 117.795 233.484 114.956C243.272 112.117 252.058 106.01 258.674 97.4456C259.236 96.7574 259.622 96.1774 259.912 95.8136C260.048 95.6146 260.198 95.4273 260.359 95.2533C260.255 95.4753 260.129 95.6832 259.982 95.8726C259.719 96.2659 259.35 96.8557 258.815 97.5734C257.325 99.6125 255.697 101.519 253.944 103.275C248.158 109.15 241.187 113.365 233.627 115.558C226.068 117.751 218.146 117.858 210.542 115.868C208.262 115.284 206.025 114.502 203.854 113.529C203.073 113.204 202.493 112.88 202.098 112.683C201.886 112.591 201.68 112.48 201.484 112.349Z" fill="white"/>
<path d="M116.181 70.2045C179.905 70.2045 231.562 63.5804 231.562 55.4092C231.562 47.238 179.905 40.6139 116.181 40.6139C52.4581 40.6139 0.800171 47.238 0.800171 55.4092C0.800171 63.5804 52.4581 70.2045 116.181 70.2045Z" fill="#E0E0E0"/>
<path d="M185.466 384.239C185.466 384.239 186.344 374.408 172.757 371.262C159.171 368.116 151.561 370.004 144.776 367.153C137.992 364.302 129.803 355.759 125.845 346.577C121.886 337.395 121.605 320.034 121.605 310.813C121.605 301.591 121.544 250.943 121.605 241.181C121.667 231.665 124.133 217.587 129.505 209.339C152.562 199.636 158.038 164.177 158.837 155.673C159.636 147.17 166.025 133.289 179.217 128.816C183.377 127.342 187.426 125.504 191.329 123.32C202.032 117.508 211.274 108.803 218.223 97.9909C225.172 87.1785 229.608 74.5988 231.132 61.3863C231.545 57.6801 231.571 55.4878 231.571 55.4878C231.571 55.4878 233.274 52.804 217.388 50.5724C197.455 47.7117 138.545 46.1387 119.297 45.657V45.5194L116.216 45.5882L113.127 45.5194V45.657C93.8792 46.1093 35.0126 47.6822 15.0363 50.5724C-0.849854 52.8433 0.852862 55.4878 0.852862 55.4878C0.852862 55.4878 0.852862 57.7194 1.29171 61.3863C2.86889 75.0309 7.55651 87.9907 14.903 99.0172C22.2495 110.044 32.0073 118.766 43.2365 124.343C46.2382 125.847 49.5734 127.39 53.2246 128.865C66.1881 134.114 72.8059 147.219 73.6046 155.722C74.4033 164.226 80.7227 200.03 103.788 209.742C109.16 217.971 111.056 231.714 110.81 241.201C110.599 250.501 110.81 301.65 110.81 310.832C110.81 320.014 110.529 337.375 106.571 346.597C102.612 355.818 94.4234 364.292 87.6389 367.172C80.8543 370.053 73.2272 368.155 59.6581 371.282C46.089 374.408 46.9491 384.258 46.9491 384.258" fill="#E0E0E0"/>
<path d="M265.81 94.4472L174.758 31.0781C174.427 30.8496 174.149 30.5368 173.947 30.165C173.744 29.7933 173.623 29.3732 173.593 28.939C173.563 28.5048 173.625 28.0688 173.774 27.6666C173.923 27.2644 174.155 26.9074 174.451 26.6247C181.236 20.0774 200.15 4.3777 206.092 3.03088C208.391 2.49019 211.481 0.602685 215.281 0.583023C226.159 0.528998 236.821 3.97531 246 10.5121L256.796 18.1703L257.981 19.1533C262.537 22.7678 266.383 27.3918 269.278 32.7388C272.174 38.0859 274.059 44.0421 274.815 50.2382L274.947 51.4671C276.304 63.8737 274.976 76.464 271.076 88.1752L269.435 93.0906C269.305 93.4738 269.101 93.82 268.837 94.104C268.574 94.388 268.257 94.6027 267.91 94.7326C267.563 94.8625 267.194 94.9042 266.831 94.8549C266.468 94.8055 266.119 94.6663 265.81 94.4472Z" fill="#FF725E"/>
<path opacity="0.4" d="M265.81 94.4471L174.758 31.078C174.427 30.8495 174.149 30.5367 173.947 30.1649C173.744 29.7932 173.623 29.3731 173.593 28.9389C173.563 28.5047 173.625 28.0687 173.774 27.6665C173.923 27.2643 174.155 26.9073 174.451 26.6246C181.236 20.0773 200.15 4.37759 206.092 3.03078C208.848 2.38195 212.947 0.533765 217.572 0.59275C227.275 0.734499 236.748 3.91511 244.921 9.77469L256.796 18.1702L257.981 19.1532C262.537 22.7677 266.383 27.3917 269.278 32.7387C272.174 38.0858 274.059 44.0419 274.815 50.2381L276.281 63.6277C276.774 68.0331 276.316 72.5066 274.947 76.6731L269.479 93.061C269.353 93.454 269.15 93.8102 268.884 94.1027C268.619 94.3952 268.297 94.6165 267.944 94.7499C267.591 94.8832 267.216 94.9253 266.846 94.8729C266.476 94.8204 266.122 94.6749 265.81 94.4471Z" fill="white"/>
<path d="M231.694 66.9014L257.34 85.1768C257.985 85.637 258.719 85.9192 259.48 86.0003C260.241 86.0814 261.009 85.9592 261.72 85.6435C262.431 85.3278 263.065 84.8278 263.57 84.1844C264.075 83.541 264.437 82.7727 264.625 81.9425L268.689 64.1094C268.881 63.2614 268.885 62.3734 268.699 61.5235C268.514 60.6735 268.145 59.8875 267.625 59.2344C267.105 58.5813 266.45 58.081 265.717 57.7775C264.985 57.4739 264.197 57.3763 263.423 57.4933L232.633 62.1629C232.165 62.2335 231.727 62.4633 231.379 62.8213C231.031 63.1793 230.79 63.6484 230.687 64.1651C230.585 64.6818 230.627 65.2212 230.807 65.7105C230.987 66.1999 231.296 66.6155 231.694 66.9014Z" fill="#FF725E"/>
<path d="M265.986 43.2092C262.659 36.9163 258.376 31.3235 253.329 26.6837C249.608 23.4395 246.413 26.0152 244.842 28.5515L229.149 53.1285C228.92 53.4866 228.79 53.9121 228.775 54.3521C228.76 54.7921 228.861 55.2274 229.064 55.6041C229.268 55.9808 229.566 56.2823 229.921 56.4713C230.276 56.6603 230.673 56.7285 231.062 56.6675L263.036 51.5949C265.836 51.0935 267.723 45.6964 265.986 43.2092Z" fill="#FF725E"/>
<path d="M211.595 53.0695L190.311 37.1731C189.433 36.5167 188.706 35.6357 188.192 34.6029C187.677 33.5701 187.389 32.4151 187.351 31.2331C187.314 30.0511 187.527 28.876 187.975 27.8047C188.422 26.7333 189.091 25.7965 189.925 25.0715L201.976 14.6115C202.612 14.1028 203.35 13.777 204.125 13.6626C204.901 13.5483 205.689 13.6489 206.421 13.9556C207.154 14.2624 207.808 14.7659 208.326 15.4219C208.844 16.0779 209.21 16.8664 209.392 17.7181L216.212 49.6287C216.35 50.2868 216.305 50.9766 216.084 51.6055C215.862 52.2343 215.474 52.7721 214.971 53.1467C214.469 53.5212 213.876 53.7146 213.272 53.7008C212.669 53.687 212.084 53.4667 211.595 53.0695Z" fill="#FF725E"/>
<path d="M220.828 11.1805C227.093 12.1962 233.217 14.1058 239.049 16.8627C243.736 18.9075 243.341 22.8791 241.796 25.4253L225.234 50.6806C224.948 51.1568 224.543 51.5289 224.07 51.7512C223.597 51.9735 223.077 52.0363 222.573 51.9319C222.068 51.8275 221.602 51.5604 221.232 51.1635C220.861 50.7666 220.602 50.2571 220.486 49.6975L214.123 19.2024C212.631 13.6579 218.107 10.3056 220.828 11.1805Z" fill="#FF725E"/>
<path d="M268.373 96.2364L263.905 93.2872C263.905 93.2872 293.22 46.8073 248.274 16.5482C203.327 -13.7109 175.978 31.9333 175.978 31.9333L171.669 28.7383C171.669 28.7383 199.263 -21.2216 251.416 11.8294C296.775 40.5648 268.373 96.2364 268.373 96.2364Z" fill="#FF725E"/>
<path d="M206.285 41.479C205.011 40.6331 203.817 39.645 202.722 38.5298C201.53 37.5451 200.436 36.4214 199.457 35.1775C200.729 36.0211 201.92 37.0094 203.011 38.1267C204.202 39.1163 205.299 40.2395 206.285 41.479Z" fill="white"/>
<path d="M205.109 35.61C205.004 35.6886 204.398 34.9317 203.748 33.9093C203.099 32.8869 202.66 31.9431 202.765 31.9431C202.871 31.9431 203.476 32.6214 204.126 33.6438C204.775 34.6662 205.214 35.5313 205.109 35.61Z" fill="white"/>
<path d="M224.365 36.2884C224.077 35.1973 223.935 34.0642 223.944 32.9263C223.796 31.7986 223.796 30.6526 223.944 29.5248C224.233 30.6159 224.375 31.7491 224.365 32.887C224.519 34.0143 224.519 35.1611 224.365 36.2884Z" fill="white"/>
<path d="M228.262 35.1971C228.292 34.2747 228.41 33.3585 228.613 32.4642C228.671 31.542 228.815 30.6292 229.043 29.741C229.347 31.6063 229.071 33.5315 228.262 35.1971Z" fill="white"/>
<path d="M247.098 39.4637C245.917 40.7913 244.633 41.9986 243.262 43.0716C241.982 44.2806 240.604 45.3535 239.146 46.2765C240.324 44.946 241.608 43.7384 242.981 42.6686C244.26 41.457 245.638 40.384 247.098 39.4637Z" fill="white"/>
<path d="M246.773 48.7243C245.957 49.1545 245.081 49.4239 244.184 49.5206C243.327 49.7825 242.437 49.8822 241.551 49.8155C242.368 49.3904 243.243 49.1213 244.14 49.0192C244.997 48.7572 245.887 48.6575 246.773 48.7243Z" fill="white"/>
<path d="M252.214 68.6512C250.622 68.5392 249.043 68.2494 247.501 67.7861C245.924 67.4995 244.374 67.0419 242.876 66.4196C244.467 66.5441 246.045 66.8337 247.589 67.2847C249.166 67.5766 250.714 68.0341 252.214 68.6512Z" fill="white"/>
<path d="M246.773 74.6972C245.926 74.2088 245.154 73.5752 244.482 72.8195C243.713 72.188 243.04 71.4211 242.49 70.5486C243.336 71.037 244.109 71.6705 244.78 72.4263C245.55 73.0577 246.222 73.8246 246.773 74.6972Z" fill="white"/>
<path d="M238.733 12.8027C238.517 12.7401 238.306 12.6579 238.101 12.5569C237.689 12.3996 237.101 12.1047 236.346 11.7999C234.145 10.9093 231.893 10.1867 229.605 9.63717C220.882 7.55721 211.821 8.1395 203.368 11.3232C194.915 14.5069 187.38 20.1752 181.552 27.7356C180.99 28.4139 180.604 28.994 180.314 29.3675C180.179 29.5653 180.03 29.7495 179.866 29.918C179.975 29.6989 180.101 29.4915 180.244 29.2987C180.507 28.9153 180.876 28.3156 181.411 27.6078C182.9 25.5651 184.529 23.6555 186.282 21.8961C192.069 16.0406 199.034 11.8392 206.584 9.64983C214.133 7.4605 222.044 7.34822 229.64 9.32259C231.934 9.90489 234.185 10.6838 236.372 11.6525C237.153 11.9867 237.733 12.3111 238.128 12.5078C238.339 12.58 238.542 12.6789 238.733 12.8027Z" fill="white"/>
<path opacity="0.7" d="M216.141 100.985C224.352 89.532 229.566 75.753 231.203 61.1798C231.437 59.2233 231.58 57.2545 231.633 55.2814C231.633 55.2814 231.835 54.957 231.448 54.4458C230.887 53.1481 229.008 51.8898 225.989 50.7002C224.023 49.9236 213.868 54.5637 213.403 54.6325C210.147 55.1536 199.237 53.1284 183.921 43.2878C183.921 43.2878 181.552 59.2235 189.188 74.5005C198.254 92.5892 216.141 100.985 216.141 100.985Z" fill="#E0E0E0"/>
<path d="M10.4987 57.8767C10.4987 57.8767 10.4987 59.3317 10.7444 61.809C11.9045 74.3744 15.9873 86.3791 22.5853 96.6242C29.1832 106.869 38.0653 114.996 48.3447 120.194C51.3639 121.728 54.5675 123.281 57.6833 124.657C69.4443 129.838 76.0095 143.483 77.1329 151.358C78.2787 158.602 79.8026 165.764 81.6969 172.808C86.3135 190.189 99.3823 202.428 115.312 202.753C130.909 203.067 143.223 193.05 148.612 176.367C151.292 168.196 153.505 159.843 155.239 151.358C156.678 143.552 162.409 130.339 174.162 125.109C177.47 123.635 180.937 121.934 184.202 120.194C194.432 114.933 203.263 106.779 209.825 96.5351C216.387 86.2909 220.455 74.3094 221.627 61.7697V60.6981L10.4987 57.8767Z" fill="#FF725E"/>
<path d="M116.216 392.251C154.467 392.251 185.475 388.664 185.475 384.239C185.475 379.814 154.467 376.227 116.216 376.227C77.966 376.227 46.9579 379.814 46.9579 384.239C46.9579 388.664 77.966 392.251 116.216 392.251Z" fill="#E0E0E0"/>
<path d="M10.4987 61.0128C24.2345 67.0882 66.3549 71.5121 116.181 71.5121C166.008 71.5121 207.926 66.813 221.662 60.6982C207.926 54.613 166.017 50.4742 116.181 50.4742C66.3461 50.4742 24.2345 54.9374 10.4987 61.0128Z" fill="#FF725E"/>
<path opacity="0.3" d="M10.4987 60.3541C24.2345 66.0559 66.3549 70.1849 116.181 70.1849C166.008 70.1849 207.926 66.4098 221.662 60.7178C207.619 54.5146 166.017 50.4938 116.181 50.4938C66.3461 50.4938 24.2345 54.6621 10.4987 60.3541Z" fill="white"/>
<path d="M174.425 129.327C174.333 129.364 174.239 129.393 174.144 129.415L173.31 129.651L170.089 130.507L167.754 131.106L164.963 131.735C162.962 132.168 160.689 132.718 158.144 133.151L154.159 133.878C152.772 134.134 151.324 134.321 149.823 134.547C146.83 135.038 143.618 135.373 140.23 135.766C133.454 136.415 125.985 136.857 118.139 136.857C110.292 136.857 102.814 136.326 96.0384 135.628C92.6593 135.215 89.4381 134.862 86.454 134.35C84.9531 134.105 83.5049 133.918 82.1182 133.652L78.1423 132.895C75.597 132.453 73.3237 131.912 71.3226 131.44L68.5403 130.792L66.2057 130.182L62.9933 129.307L62.1595 129.071L61.8787 128.973C61.9747 128.958 62.0722 128.958 62.1683 128.973L63.046 129.17L66.2847 129.946L68.6193 130.516L71.4104 131.116C73.4203 131.539 75.6935 132.099 78.23 132.502L82.206 133.23C83.5927 133.475 85.0409 133.662 86.533 133.888C89.5259 134.38 92.7382 134.714 96.1173 135.117C102.876 135.786 110.336 136.258 118.174 136.307C126.011 136.356 133.463 135.884 140.23 135.255C143.609 134.881 146.822 134.567 149.814 134.095C151.306 133.869 152.755 133.692 154.141 133.456L158.126 132.758C160.671 132.345 162.945 131.824 164.955 131.411L167.746 130.831L170.089 130.271L173.328 129.514L174.205 129.327C174.278 129.318 174.352 129.318 174.425 129.327Z" fill="#263238"/>
<path opacity="0.3" d="M17.5552 67.8058C17.5552 67.8058 20.1883 91.2129 40.4805 108.112C54.3305 119.683 71.9984 127.056 71.9984 127.056L99.1102 131.755C99.1102 131.755 82.4341 120.292 69.0669 97.3473C65.0869 90.4456 62.6235 82.5859 61.8786 74.4121L17.5552 67.8058Z" fill="white"/>
<g opacity="0.3">
<path d="M69.6462 130.939L69.9709 131.116C84.8917 139.285 101.445 144.27 118.024 144.279C134.727 144.164 151.181 139.744 166.113 131.362C131.339 138.037 99.2507 138.44 69.6462 130.939Z" fill="black"/>
</g>
<g opacity="0.3">
<path d="M135.938 185.834C126.283 194.524 115.751 198.201 105.342 195.311C98.7942 193.502 90.8775 189.186 86.1116 183.809C92.431 195.144 103.016 202.487 115.312 202.753C130.909 203.067 143.223 193.05 148.612 176.367C151.292 168.196 153.505 159.843 155.238 151.358C155.433 150.295 155.68 149.245 155.976 148.212C151.447 158.691 144.048 178.54 135.938 185.834Z" fill="black"/>
</g>
<g opacity="0.2">
<path d="M107.843 211.64C110.114 215.286 112.144 219.114 113.917 223.093C114.152 223.602 114.506 224.03 114.94 224.334C115.374 224.637 115.873 224.804 116.384 224.817C116.896 224.83 117.401 224.689 117.847 224.408C118.293 224.127 118.664 223.717 118.92 223.22C120.815 219.534 122.676 215.838 124.607 212.151C124.688 211.998 124.726 211.822 124.719 211.644C124.711 211.466 124.658 211.295 124.564 211.151C124.471 211.007 124.343 210.897 124.194 210.833C124.046 210.77 123.885 210.757 123.729 210.794C118.673 212.05 113.43 212.016 108.387 210.696C108.281 210.67 108.17 210.681 108.069 210.727C107.968 210.774 107.882 210.854 107.823 210.957C107.764 211.059 107.734 211.18 107.738 211.302C107.741 211.424 107.778 211.542 107.843 211.64Z" fill="black"/>
</g>
<path d="M139.782 191.536C139.7 191.673 139.602 191.798 139.493 191.909C139.291 192.136 139.01 192.489 138.615 192.893C137.489 194.072 136.286 195.157 135.017 196.137C130.817 199.408 126.01 201.57 120.956 202.459C115.903 203.348 110.735 202.941 105.842 201.268C104.367 200.772 102.926 200.155 101.533 199.42C101.041 199.165 100.655 198.929 100.418 198.781C100.286 198.708 100.16 198.622 100.041 198.526C100.573 198.728 101.095 198.964 101.603 199.233C103.016 199.895 104.464 200.46 105.939 200.924C110.797 202.476 115.9 202.825 120.891 201.945C125.882 201.066 130.642 198.98 134.841 195.832C136.114 194.884 137.336 193.853 138.501 192.745C138.905 192.313 139.333 191.909 139.782 191.536Z" fill="#263238"/>
<path d="M127.74 209.428C127.74 209.428 127.486 209.634 126.994 209.9C126.289 210.28 125.562 210.609 124.818 210.883C119.877 212.751 114.544 212.878 109.537 211.247C108.786 211.007 108.05 210.711 107.334 210.362C107.061 210.257 106.801 210.111 106.562 209.929C106.562 209.841 107.729 210.352 109.625 210.912C112.096 211.617 114.641 211.948 117.191 211.895C119.742 211.823 122.273 211.377 124.721 210.568C126.617 209.919 127.705 209.349 127.74 209.428Z" fill="#263238"/>
<path d="M144.267 368.146C144.095 368.253 143.913 368.339 143.723 368.401L142.152 369.03C141.468 369.306 140.616 369.62 139.624 369.935C138.633 370.249 137.509 370.662 136.237 370.977C134.964 371.292 133.603 371.714 132.085 372.019C130.567 372.324 128.969 372.638 127.267 372.933C119.856 374.083 112.341 374.126 104.921 373.061C103.209 372.786 101.585 372.56 100.084 372.206C98.5836 371.852 97.1881 371.557 95.9242 371.223C94.6603 370.888 93.5281 370.525 92.5276 370.24C91.527 369.955 90.6844 369.63 89.9998 369.355L88.4112 368.745C88.2231 368.693 88.0427 368.61 87.8758 368.5C88.0685 368.536 88.259 368.585 88.4463 368.647L90.0525 369.168C90.7458 369.404 91.5972 369.689 92.5978 369.964C93.5983 370.24 94.7218 370.603 95.9944 370.888C97.2671 371.174 98.6275 371.547 100.155 371.822C101.682 372.098 103.27 372.363 104.964 372.629C112.354 373.628 119.825 373.585 127.205 372.501C128.899 372.216 130.523 371.98 132.015 371.636C133.507 371.292 134.902 370.987 136.166 370.653C137.43 370.318 138.554 369.974 139.554 369.669C140.555 369.365 141.406 369.099 142.091 368.854L143.697 368.313C143.881 368.233 144.072 368.177 144.267 368.146Z" fill="#263238"/>
<g opacity="0.5">
<path d="M82.4693 389.144C83.1268 385.502 84.6838 382.139 86.963 379.438C89.2423 376.737 92.1525 374.807 95.3625 373.867C91.3954 371.459 87.1737 371.469 82.1972 371.518C77.2207 371.567 73.9293 371.901 68.8212 372.402C64.8727 372.822 60.9659 373.638 57.1479 374.84C53.3914 376.079 50.1264 380.228 50.6618 384.573C55.3591 385.978 60.1444 386.983 64.9769 387.581C72.8673 388.554 82.4693 389.144 82.4693 389.144Z" fill="white"/>
</g>
<path opacity="0.5" d="M93.0717 368.146C93.0717 368.146 103.235 361.333 107.167 351.433C108.622 347.547 109.776 343.528 110.617 339.42C110.723 338.933 110.971 338.5 111.323 338.19C111.675 337.88 112.109 337.711 112.556 337.71C113.063 337.706 113.55 337.92 113.92 338.308C114.289 338.696 114.511 339.228 114.54 339.794C114.795 344.159 115.111 354.432 113.101 361.077C112.052 364.839 110.418 368.364 108.273 371.488C103.107 371.039 98.0058 369.917 93.0717 368.146Z" fill="white"/>
<g opacity="0.5">
<path d="M113.399 328.734C112.767 328.734 112.258 311.914 112.258 291.181C112.258 270.448 112.767 253.627 113.399 253.627C114.031 253.627 114.549 270.438 114.549 291.181C114.549 311.924 114.031 328.734 113.399 328.734Z" fill="white"/>
</g>
<g opacity="0.5">
<path d="M126.74 206.085C126.819 206.341 123.545 207.993 117.831 208.376C114.487 208.592 111.131 208.287 107.861 207.472C99.7342 205.51 92.4433 200.515 87.1825 193.305C85.0468 190.414 83.2749 187.209 81.9164 183.779C79.6256 177.881 79.4413 173.89 79.687 173.86C79.9328 173.831 80.8105 177.566 83.3733 182.983C84.8672 186.159 86.6876 189.128 88.7975 191.831C93.919 198.456 100.752 203.135 108.352 205.22C111.457 206.085 114.641 206.538 117.84 206.567C123.273 206.656 126.617 205.672 126.74 206.085Z" fill="white"/>
</g>
<path opacity="0.3" d="M149.49 130.32C149.49 130.32 154.756 117.795 160.601 111.14C169.159 101.457 184.904 91.2325 184.439 71.512C196.047 71.1434 207.558 69.0407 218.669 65.2596C216.015 76.1099 211.87 86.4312 206.381 95.853C192.865 118.464 177.418 115.141 164.884 127.803L149.49 130.32Z" fill="black"/>
<g opacity="0.5">
<path d="M138.29 77.9021C138.29 78.079 136.614 78.3346 133.56 78.6394C132.032 78.8065 130.154 78.9638 127.986 79.0916C125.818 79.2194 123.334 79.3963 120.587 79.475C117.84 79.5536 114.847 79.6814 111.617 79.6913C108.387 79.7011 104.947 79.6913 101.322 79.6421C94.0723 79.4848 86.0941 79.1014 77.7473 78.3936C69.4004 77.6858 61.4661 76.6732 54.2778 75.6017C50.6793 75.0216 47.2563 74.4908 44.0879 73.8813C40.9194 73.2718 37.944 72.7114 35.2495 72.1412C32.555 71.571 30.1326 71.0009 27.9998 70.4897C25.867 69.9785 24.0414 69.5066 22.5493 69.0937C19.574 68.2679 17.9502 67.7272 17.9766 67.5503C18.0029 67.3733 19.732 67.5503 22.7249 68.1204L35.5216 70.352C38.2249 70.8042 41.1827 71.3351 44.3687 71.7775C47.5547 72.2199 50.9602 72.7606 54.5411 73.2619C61.7119 74.245 69.6111 75.1101 77.9228 75.8474C86.2345 76.5847 94.1601 76.9976 101.375 77.2827C104.982 77.4007 108.396 77.5383 111.626 77.5678C114.856 77.5973 117.831 77.6563 120.561 77.6661H133.516C136.579 77.6465 138.282 77.7251 138.29 77.9021Z" fill="white"/>
</g>
<g opacity="0.5">
<path d="M14.7818 90.9179C14.5536 91.1342 13.2458 89.9349 11.5694 87.6345C10.5936 86.2569 9.71335 84.7977 8.93636 83.2696C7.98885 81.3766 7.1731 79.4046 6.49638 77.3711C5.84011 75.34 5.32082 73.2566 4.94287 71.1384C4.64447 69.4131 4.46547 67.6646 4.40748 65.9085C4.31971 62.9101 4.64446 61.0717 4.93409 61.0717C5.61869 61.0717 5.89077 68.2973 8.64672 76.4765C11.4027 84.6557 15.2996 90.4166 14.7818 90.9179Z" fill="white"/>
</g>
<path d="M108.071 59.4595L66.0564 55.0553L53.0929 57.6998C52.2591 57.8767 51.2761 58.1815 51.0303 59.0957C50.9675 59.4988 51.0299 59.9139 51.2072 60.2717C51.3845 60.6295 51.6659 60.9084 52.0046 61.0619C52.6989 61.3523 53.4451 61.4534 54.1812 61.3568L71.1294 60.5802C76.3956 60.3442 81.6617 60.1083 86.9278 60.9734C92.5451 61.9565 97.9165 64.1291 103.428 65.6529C108.94 67.1766 114.838 68.0024 120.245 66.1739C118.888 63.9939 117.059 62.2346 114.93 61.0605C112.801 59.8863 110.442 59.3355 108.071 59.4595Z" fill="#FF725E"/>
<path d="M128.662 57.5818C127.995 58.3683 126.907 58.4961 126.029 58.85C125.151 59.2039 124.168 60.1772 124.458 61.2094C124.66 61.9369 125.336 62.3006 126.003 62.5562C127.55 63.1624 129.151 63.5842 130.777 63.8146C132.329 63.9507 133.873 64.1805 135.403 64.5027C136.623 64.837 137.79 65.3973 138.992 65.8397C141.939 66.8348 144.968 67.4935 148.033 67.8059C151.835 68.452 155.675 68.7806 159.522 68.7889C166.034 68.6022 172.389 66.5672 178.515 64.1095C179.393 63.7556 180.463 63.1264 180.437 62.0647C180.386 61.655 180.207 61.2786 179.933 61.0018C179.658 60.7249 179.305 60.5652 178.936 60.5507C178.198 60.542 177.469 60.7343 176.812 61.1111" fill="#FF725E"/>
<path d="M59.9915 64.2765C59.9915 64.2765 58.008 60.4032 59.6141 58.2994C64.8803 51.4179 74.2365 39.621 77.4839 38.7165C82.0918 37.468 114.68 41.3217 116.216 47.5642C117.27 51.9193 116.962 58.1028 116.673 61.4748C116.61 62.1833 116.353 62.853 115.939 63.3929C115.524 63.9328 114.972 64.3168 114.356 64.4928C109.704 65.7905 98.724 67.678 97.1529 67.5895C88.2619 67.1176 69.0054 65.7315 59.9915 64.2765Z" fill="#FAFAFA"/>
<path d="M59.9915 64.2765C59.9915 64.2765 58.008 60.4032 59.6141 58.2994C64.8803 51.4179 74.2365 39.621 77.4839 38.7165C82.0918 37.468 114.68 41.3217 116.216 47.5642C117.27 51.9193 116.962 58.1028 116.673 61.4748" fill="#FAFAFA"/>
<path d="M116.673 61.5141C116.664 61.4325 116.664 61.35 116.673 61.2684V60.5605C116.673 59.9314 116.752 59.0171 116.787 57.8374C116.822 56.6577 116.787 55.2028 116.787 53.5217C116.736 51.6262 116.509 49.7417 116.111 47.8985C115.962 47.3928 115.722 46.9264 115.407 46.5275C115.091 46.1287 114.707 45.8058 114.277 45.5784C113.35 44.9941 112.381 44.4975 111.38 44.094C109.155 43.214 106.88 42.5014 104.569 41.9607C99.2651 40.7021 93.8989 39.7961 88.499 39.2474C85.6289 38.9525 82.8116 38.7264 80.0995 38.7362C79.4237 38.7362 78.7478 38.7362 78.1071 38.8542C77.4791 38.9451 76.8783 39.1975 76.3517 39.5915C75.2886 40.3691 74.2846 41.2437 73.3501 42.2065C70.1034 45.5759 67.01 49.126 64.0816 52.8434L60.6938 57.1198C60.2138 57.675 59.7791 58.277 59.3948 58.9188C59.1511 59.5014 59.0482 60.1455 59.0964 60.7867C59.1673 61.6867 59.3628 62.5688 59.6756 63.4016C59.7722 63.6867 59.86 63.903 59.9214 64.0505C59.9828 64.1979 60.0092 64.2667 60.0004 64.2766C59.9507 64.2148 59.9093 64.1453 59.8775 64.0701C59.7713 63.8662 59.6746 63.6562 59.5879 63.441C59.2363 62.6069 59.0109 61.7133 58.9208 60.7965C58.8591 60.1249 58.9559 59.4468 59.2017 58.8303C59.5797 58.1617 60.0116 57.5332 60.4919 56.9526C61.4749 55.6746 62.5896 54.2099 63.8359 52.6271C66.7456 48.8564 69.8306 45.2599 73.078 41.8526C74.0308 40.8643 75.0553 39.9666 76.1411 39.1688C76.7194 38.7413 77.3765 38.4658 78.0632 38.3627C78.7425 38.2809 79.4251 38.2382 80.1083 38.2349C82.8554 38.2349 85.6728 38.4413 88.5604 38.7362C93.9769 39.2907 99.3583 40.2132 104.675 41.4987C107.001 42.0584 109.291 42.7908 111.53 43.6909C112.551 44.1111 113.538 44.6308 114.479 45.2442L115.128 45.7357L115.707 46.3158C115.878 46.5318 116.033 46.7618 116.173 47.0039C116.291 47.2565 116.382 47.5238 116.445 47.8002C116.828 49.6747 117.034 51.5891 117.059 53.5119C117.112 55.2028 117.059 56.6577 117.006 57.8374C116.954 59.0171 116.875 59.951 116.813 60.5704C116.813 60.8555 116.752 61.0816 116.734 61.2782C116.721 61.3591 116.701 61.4382 116.673 61.5141Z" fill="#E0E0E0"/>
<path d="M114.47 47.6036C114.733 47.8199 111.178 52.3715 106.658 57.7784L100.874 64.719L99.119 66.8129C98.924 67.0912 98.6967 67.3392 98.4432 67.5502C98.5906 67.2368 98.7735 66.9461 98.9874 66.6851C99.3648 66.1542 99.9265 65.3973 100.637 64.4732C102.05 62.6348 104.069 60.1476 106.325 57.4344L112.118 50.5037C112.855 49.6189 113.452 48.9012 113.873 48.39C114.294 47.8788 114.435 47.5937 114.47 47.6036Z" fill="#E0E0E0"/>
<path d="M129.768 59.5382C129.768 59.5382 128.013 50.2973 129.768 47.5152C131.523 44.7331 147.12 28.3648 150.622 28.6991C154.124 29.0333 178.954 37.9203 180.393 41.0564C181.832 44.1924 178.796 58.3192 178.48 59.5382C178.164 60.7572 160.241 68.0615 157.222 68.0615C154.203 68.0615 129.768 59.5382 129.768 59.5382Z" fill="#FAFAFA"/>
<path d="M153.474 57.5818C153.149 57.6025 152.823 57.586 152.5 57.5326C151.877 57.5326 150.982 57.3557 149.867 57.1787C146.98 56.6784 144.135 55.909 141.362 54.8783C138.115 53.6593 135.28 52.2732 133.235 51.2704C132.208 50.7592 131.383 50.3365 130.821 50.0318C130.512 49.9003 130.217 49.7288 129.943 49.5206C130.264 49.5905 130.577 49.7027 130.874 49.8548L133.34 50.9362C135.411 51.8505 138.264 53.1776 141.485 54.3868C144.242 55.4104 147.057 56.225 149.911 56.8248C152.114 57.2771 153.483 57.4933 153.474 57.5818Z" fill="#E0E0E0"/>
<path d="M178.875 42.9831C178.721 43.285 178.532 43.5627 178.313 43.8089C177.765 44.5048 177.179 45.1615 176.558 45.7751C174.455 47.8255 172.194 49.6614 169.799 51.2607C167.421 52.8748 164.972 54.3546 162.462 55.6943C161.505 56.2154 160.707 56.6086 160.162 56.8642C159.888 57.0324 159.592 57.1518 159.285 57.2181C159.53 57.0049 159.799 56.8266 160.083 56.6872L162.313 55.3699C164.191 54.259 166.78 52.7058 169.554 50.8183C171.927 49.231 174.194 47.4536 176.338 45.4998C177.944 44.035 178.813 42.9242 178.875 42.9831Z" fill="#E0E0E0"/>
<path d="M156.906 68.0615C156.486 66.3144 156.274 64.513 156.274 62.7037C156.126 60.8953 156.2 59.0728 156.494 57.2869C156.661 59.0765 156.74 60.8749 156.731 62.6742C156.879 64.4649 156.938 66.2634 156.906 68.0615Z" fill="#E0E0E0"/>
<path d="M178.48 59.5381C178.466 59.4569 178.466 59.3736 178.48 59.2924C178.48 59.0958 178.559 58.8598 178.62 58.5747C178.743 57.8964 178.919 56.9723 179.138 55.8025C179.78 52.4187 180.241 48.9946 180.516 45.549C180.602 44.4189 180.578 43.2817 180.446 42.1573C180.412 41.5883 180.182 41.0561 179.805 40.6729C179.371 40.2978 178.907 39.9687 178.418 39.6898C176.25 38.4288 174.014 37.3223 171.722 36.3768C166.885 34.3026 161.488 32.2578 155.748 30.3997C154.308 29.9377 152.886 29.4953 151.473 29.1611C151.136 29.0734 150.792 29.0208 150.446 29.0038C150.114 29.0324 149.788 29.1221 149.481 29.2692C148.835 29.5671 148.212 29.9255 147.62 30.3408C145.349 31.9805 143.179 33.7902 141.125 35.7575C137.594 39.0161 134.216 42.4779 131.005 46.129C130.672 46.532 130.347 46.9253 130.058 47.3185C129.916 47.5078 129.795 47.7158 129.698 47.9378C129.589 48.1471 129.506 48.372 129.452 48.6063C129.229 49.4865 129.108 50.3951 129.092 51.3098C129.061 52.7975 129.126 54.2858 129.285 55.7631C129.399 56.9822 129.531 57.9259 129.61 58.5649C129.654 58.8598 129.689 59.0958 129.715 59.2924C129.725 59.3739 129.725 59.4566 129.715 59.5381C129.686 59.4627 129.665 59.3834 129.654 59.3022C129.61 59.1056 129.566 58.8697 129.505 58.5747C129.391 57.9456 129.233 57.0018 129.092 55.7828C128.902 54.3015 128.811 52.8063 128.82 51.3098C128.824 50.3637 128.936 49.4221 129.154 48.508C129.212 48.2535 129.301 48.0088 129.417 47.7805C129.518 47.5364 129.648 47.3083 129.803 47.1022C130.101 46.6893 130.417 46.2863 130.751 45.8832C133.938 42.1661 137.304 38.648 140.836 35.3446C142.902 33.3568 145.083 31.5243 147.366 29.859C147.983 29.4344 148.629 29.0631 149.297 28.7482C149.651 28.5722 150.032 28.4721 150.42 28.4532C150.799 28.4621 151.176 28.5182 151.543 28.6204C152.983 28.9546 154.413 29.397 155.853 29.859C161.611 31.7269 167.017 33.7914 171.853 35.8853C174.165 36.8477 176.416 37.9808 178.594 39.2769C179.104 39.5833 179.586 39.9455 180.033 40.3583C180.469 40.8073 180.733 41.427 180.771 42.0885C180.907 43.2426 180.922 44.4107 180.814 45.5686C180.517 49.0276 180.01 52.46 179.296 55.8418C179.05 57.0411 178.84 57.975 178.69 58.5944C178.614 58.909 178.553 59.1449 178.506 59.3022C178.507 59.3818 178.498 59.4612 178.48 59.5381Z" fill="#E0E0E0"/>
<path d="M134.174 42.2557C133.807 42.3339 133.433 42.3636 133.059 42.3442H130.022C127.468 42.3442 123.931 42.3442 120.026 42.3442L110.029 42.2262L106.992 42.1574C106.622 42.1647 106.252 42.1351 105.886 42.0689C106.249 41.982 106.621 41.9457 106.992 41.9608L110.02 41.8625L114.522 41.7936H120.026C123.931 41.7936 127.468 41.9116 130.031 41.9804L133.059 42.0984C133.434 42.1119 133.808 42.1645 134.174 42.2557Z" fill="#263238"/>
<path d="M198.105 48.2524C195.13 48.068 192.166 47.7169 189.223 47.2005C186.258 46.8448 183.311 46.3231 180.393 45.6374C183.368 45.8068 186.333 46.1546 189.275 46.6794C194.199 47.4168 198.122 48.1147 198.105 48.2524Z" fill="#263238"/>
<path opacity="0.3" d="M97.1706 100.041C97.1706 100.793 96.9714 101.529 96.5981 102.155C96.2249 102.78 95.6944 103.268 95.0738 103.556C94.4531 103.844 93.7701 103.919 93.1113 103.772C92.4524 103.626 91.8471 103.263 91.3721 102.731C90.8971 102.199 90.5736 101.521 90.4425 100.783C90.3115 100.045 90.3787 99.2802 90.6358 98.585C90.8929 97.8898 91.3283 97.2956 91.8868 96.8776C92.4454 96.4595 93.1021 96.2364 93.7739 96.2364C94.6748 96.2364 95.5387 96.6372 96.1757 97.3507C96.8127 98.0642 97.1706 99.0319 97.1706 100.041Z" fill="black"/>
<path opacity="0.3" d="M116.796 173.86C116.796 174.613 116.596 175.348 116.223 175.974C115.85 176.599 115.319 177.087 114.699 177.375C114.078 177.663 113.395 177.738 112.736 177.592C112.077 177.445 111.472 177.082 110.997 176.55C110.522 176.018 110.199 175.34 110.068 174.602C109.937 173.864 110.004 173.099 110.261 172.404C110.518 171.709 110.953 171.115 111.512 170.697C112.07 170.279 112.727 170.056 113.399 170.056C114.3 170.056 115.164 170.456 115.801 171.17C116.438 171.883 116.796 172.851 116.796 173.86Z" fill="black"/>
<path opacity="0.3" d="M102.665 165.642C103.901 165.642 104.903 164.519 104.903 163.135C104.903 161.75 103.901 160.628 102.665 160.628C101.429 160.628 100.427 161.75 100.427 163.135C100.427 164.519 101.429 165.642 102.665 165.642Z" fill="black"/>
<path opacity="0.3" d="M108.589 107.964C108.589 108.342 108.489 108.711 108.302 109.025C108.114 109.339 107.848 109.583 107.536 109.727C107.224 109.871 106.882 109.909 106.551 109.834C106.221 109.76 105.917 109.577 105.679 109.31C105.442 109.042 105.28 108.701 105.215 108.33C105.151 107.96 105.186 107.576 105.316 107.228C105.446 106.879 105.666 106.582 105.947 106.374C106.228 106.166 106.558 106.055 106.895 106.057C107.345 106.06 107.776 106.262 108.094 106.619C108.411 106.977 108.589 107.46 108.589 107.964Z" fill="black"/>
<path opacity="0.3" d="M129.961 160.628C129.963 161.006 129.864 161.376 129.678 161.691C129.491 162.006 129.225 162.252 128.914 162.398C128.602 162.543 128.259 162.582 127.928 162.509C127.597 162.435 127.293 162.254 127.054 161.986C126.816 161.719 126.653 161.378 126.588 161.007C126.522 160.637 126.557 160.252 126.687 159.903C126.817 159.555 127.036 159.257 127.318 159.048C127.599 158.839 127.93 158.729 128.267 158.731C128.716 158.731 129.147 158.931 129.465 159.286C129.783 159.642 129.961 160.125 129.961 160.628Z" fill="black"/>
<path d="M0.800164 55.4092C0.803252 55.4649 0.803252 55.5207 0.800164 55.5764C0.810053 55.7437 0.848798 55.9073 0.914261 56.0581C1.16607 56.6576 1.55712 57.1703 2.04648 57.5425C3.96239 58.9323 6.07128 59.9555 8.28686 60.5704C14.0006 62.4579 22.5142 64.1095 33.0816 65.4858C54.2339 68.2482 83.6541 69.9391 116.146 69.9391C148.638 69.9391 178.067 68.2482 199.22 65.4858C209.752 64.0996 218.301 62.4481 224.014 60.5704C226.23 59.9555 228.339 58.9323 230.255 57.5425C230.744 57.1703 231.135 56.6576 231.387 56.0581C231.452 55.9073 231.491 55.7437 231.501 55.5764C231.498 55.5207 231.498 55.4649 231.501 55.4092C231.501 55.4092 231.501 55.4682 231.501 55.5764C231.494 55.7484 231.462 55.9179 231.404 56.0777C231.167 56.7 230.781 57.2373 230.29 57.631C228.377 59.063 226.261 60.1202 224.032 60.7572C218.327 62.7233 209.805 64.4241 199.237 65.8495C178.076 68.7103 148.638 70.4601 116.12 70.4601C83.6014 70.4601 54.1813 68.7103 33.0202 65.8495C22.444 64.4241 13.9216 62.7135 8.21664 60.7572C5.98748 60.1202 3.87131 59.063 1.95871 57.631C1.46721 57.2373 1.08164 56.7 0.844044 56.0777C0.786963 55.9179 0.754324 55.7484 0.747498 55.5764C0.800159 55.4682 0.800164 55.4092 0.800164 55.4092Z" fill="white"/>
<path d="M70.8662 44.2218L70.1202 44.2906L67.9171 44.4381L59.465 44.9984C52.1363 45.5588 41.5074 46.3256 28.4737 48.2524C25.2175 48.744 21.8121 49.324 18.3013 50.1203C16.5459 50.5135 14.7906 50.9657 12.9737 51.5261C11.1492 52.0275 9.40318 52.8363 7.79537 53.9248C7.42014 54.2015 7.11726 54.5848 6.91768 55.0356C6.84311 55.2588 6.82662 55.501 6.87012 55.7342C6.91362 55.9674 7.01534 56.182 7.16344 56.353C7.84644 57.1142 8.6662 57.704 9.5683 58.0832C11.4395 58.9131 13.3681 59.5707 15.3347 60.0493C19.337 61.0914 23.5236 61.8484 27.8243 62.507C36.4344 63.8145 45.5185 64.719 54.9537 65.4563C64.3888 66.1936 74.1663 66.6753 84.1895 67.0194C124.309 68.3072 160.671 67.0882 186.879 64.601C199.966 63.323 210.577 61.7501 217.651 59.6856C219.227 59.2424 220.763 58.6403 222.241 57.8866C222.832 57.588 223.377 57.1865 223.856 56.6971C224.06 56.5113 224.214 56.266 224.3 55.9883C224.387 55.7107 224.404 55.4116 224.348 55.1241C224.2 54.6837 223.945 54.2987 223.611 54.0133C223.377 53.7909 223.127 53.5903 222.865 53.4136L222.382 53.1088L222.215 53.0007C222.448 53.1075 222.674 53.2324 222.891 53.3742C223.162 53.5434 223.421 53.7374 223.663 53.9543C224.013 54.243 224.282 54.6391 224.436 55.0946C224.5 55.4007 224.487 55.7208 224.399 56.0193C224.311 56.3178 224.15 56.583 223.935 56.7855C223.451 57.2891 222.9 57.7068 222.303 58.0242C220.822 58.7998 219.279 59.4186 217.695 59.8724C210.586 62.0352 200.001 63.6572 186.906 64.9844C160.707 67.5797 124.326 68.8479 84.2159 67.5601C74.1839 67.216 64.3976 66.7048 54.9624 65.9871C45.5273 65.2695 36.4256 64.3454 27.754 63.0379C23.4534 62.3596 19.258 61.6026 15.2382 60.5409C13.2447 60.0488 11.2922 59.3681 9.40154 58.5059C8.44051 58.1058 7.57106 57.4711 6.85625 56.6479C6.66679 56.4177 6.53847 56.1329 6.48575 55.8255C6.43303 55.5181 6.45799 55.2002 6.55783 54.9078C6.78698 54.3807 7.13868 53.9325 7.57595 53.6102C9.21051 52.5002 10.9862 51.6748 12.8421 51.1623C14.5975 50.602 16.4318 50.1793 18.196 49.7565C21.7068 48.9799 25.1385 48.4097 28.3948 47.9182C41.446 46.0307 52.0924 45.3327 59.4211 44.8313C63.0899 44.5954 65.9423 44.4479 67.8733 44.3594L70.0763 44.271L70.8662 44.2218Z" fill="#263238"/>
</svg>
