<svg width="1920" height="123" viewBox="0 0 1920 123" fill="none" xmlns="http://www.w3.org/2000/svg">
<path fill-rule="evenodd" clip-rule="evenodd" d="M0 84.558L40 90.8545C80 97.151 160 109.744 240 109.744C320 109.744 275.5 112.892 355.5 90.8545C435.5 68.8168 515.5 37.3342 595.5 18.4447C675.5 -0.444736 755.5 -6.74125 835.5 9C915.5 24.7412 1120 46.779 1200 59.372C1280 71.965 1360 59.372 1440 43.6307C1520 27.8895 1600 8.99996 1680 15.2965C1760 21.593 1840 53.0755 1880 68.8167L1920 84.558V122.337H1880C1840 122.337 1760 122.337 1680 122.337C1600 122.337 1520 122.337 1440 122.337C1360 122.337 1280 122.337 1200 122.337C1120 122.337 1040 122.337 960 122.337C880 122.337 800 122.337 720 122.337C640 122.337 560 122.337 480 122.337C400 122.337 320 122.337 240 122.337C160 122.337 80 122.337 40 122.337H0V84.558Z" fill="#D9D9D9"/>
</svg>
