<svg width="1920" height="139" viewBox="0 0 1920 139" fill="none" xmlns="http://www.w3.org/2000/svg">
<path fill-rule="evenodd" clip-rule="evenodd" d="M1920 100.721L1880 107.017C1840 113.314 1760 125.907 1680 125.907C1600 125.907 1520 113.314 1440 91.2762C1360 69.2385 1280 37.756 1200 18.8665C1120 -0.023056 1040 -6.31956 960 9.4217C880 25.163 800 62.942 720 75.535C640 88.128 560 75.535 480 59.7937C400 44.0525 320 25.163 240 31.4595C160 37.756 80 69.2385 40 84.9797L0 100.721V138.5H40C80 138.5 160 138.5 240 138.5C320 138.5 400 138.5 480 138.5C560 138.5 640 138.5 720 138.5C800 138.5 880 138.5 960 138.5C1040 138.5 1120 138.5 1200 138.5C1280 138.5 1360 138.5 1440 138.5C1520 138.5 1600 138.5 1680 138.5C1760 138.5 1840 138.5 1880 138.5H1920V100.721Z" fill="#EBEBEB"/>
</svg>
